<svg width="45" height="45" viewBox="0 0 45 45" fill="none" xmlns="http://www.w3.org/2000/svg">
<circle cx="22.5" cy="22.5" r="22.5" fill="#F5F5F5"/>
<path d="M28.8961 23.5337C28.8665 20.5657 31.3164 19.1422 31.4259 19.0703C30.0491 17.0572 27.904 16.781 27.1406 16.7496C25.3166 16.5643 23.5797 17.824 22.6544 17.824C21.7309 17.824 20.3012 16.7767 18.7886 16.8034C16.7989 16.8329 14.9648 17.9607 13.9409 19.7418C11.8744 23.3266 13.4123 28.6391 15.4258 31.5485C16.4102 32.9706 17.5842 34.5708 19.1244 34.5122C20.6089 34.4536 21.1689 33.5521 22.9634 33.5521C24.7579 33.5521 25.2618 34.5122 26.832 34.4822C28.4284 34.4532 29.4404 33.033 30.4167 31.6052C31.5469 29.9531 32.0122 28.3534 32.0398 28.2724C32.005 28.2562 28.928 27.0775 28.8961 23.5337Z" fill="black"/>
<path d="M25.9457 14.8239C26.7625 13.8324 27.3159 12.4546 27.1654 11.083C25.9866 11.1306 24.5598 11.8664 23.7135 12.857C22.9553 13.7362 22.2924 15.1359 22.47 16.4827C23.7849 16.5846 25.1261 15.8136 25.9457 14.8239Z" fill="black"/>
</svg>
