<svg width="14" height="16" viewBox="0 0 14 16" fill="none" xmlns="http://www.w3.org/2000/svg">
<path d="M3.72825 0.287612C3.87557 0.455923 3.95004 0.675847 3.93527 0.899039C3.9205 1.12223 3.81771 1.33043 3.6495 1.47786L2.12512 2.81211L3.6495 4.14636C3.73609 4.21837 3.80738 4.30699 3.85918 4.40699C3.91098 4.50699 3.94224 4.61635 3.95111 4.72862C3.95998 4.84088 3.94629 4.95379 3.91084 5.06069C3.87539 5.16758 3.81889 5.2663 3.74469 5.35101C3.67049 5.43573 3.58008 5.50474 3.47879 5.55396C3.3775 5.60319 3.26737 5.63164 3.15491 5.63763C3.04246 5.64363 2.92993 5.62705 2.82398 5.58888C2.71803 5.55071 2.62079 5.49171 2.538 5.41536L0.288 3.44661C0.197656 3.36742 0.125265 3.26985 0.0756699 3.16043C0.0260747 3.051 0.000418961 2.93225 0.000418961 2.81211C0.000418961 2.69197 0.0260747 2.57322 0.0756699 2.4638C0.125265 2.35437 0.197656 2.2568 0.288 2.17761L2.538 0.208862C2.70631 0.0615379 2.92623 -0.0129247 3.14943 0.00184227C3.37262 0.0166093 3.58082 0.119397 3.72825 0.287612ZM5.83425 0.287612C5.68693 0.455923 5.61246 0.675847 5.62723 0.899039C5.642 1.12223 5.74479 1.33043 5.913 1.47786L7.43738 2.81211L5.913 4.14636C5.82641 4.21837 5.75512 4.30699 5.70332 4.40699C5.65152 4.50699 5.62026 4.61635 5.61139 4.72862C5.60252 4.84088 5.61621 4.95379 5.65166 5.06069C5.68711 5.16758 5.74361 5.2663 5.81781 5.35101C5.89201 5.43573 5.98242 5.50474 6.08371 5.55396C6.185 5.60319 6.29513 5.63164 6.40759 5.63763C6.52004 5.64363 6.63257 5.62705 6.73852 5.58888C6.84447 5.55071 6.94171 5.49171 7.0245 5.41536L9.2745 3.44661C9.36484 3.36742 9.43724 3.26985 9.48683 3.16043C9.53643 3.051 9.56208 2.93225 9.56208 2.81211C9.56208 2.69197 9.53643 2.57322 9.48683 2.4638C9.43724 2.35437 9.36484 2.2568 9.2745 2.17761L7.0245 0.208862C6.85619 0.0615379 6.63627 -0.0129247 6.41307 0.00184227C6.18988 0.0166093 5.98168 0.119397 5.83425 0.287612ZM0.84375 7.31211C0.619974 7.31211 0.405362 7.40101 0.247129 7.55924C0.0888947 7.71747 0 7.93209 0 8.15586C0 8.37964 0.0888947 8.59425 0.247129 8.75248C0.405362 8.91072 0.619974 8.99961 0.84375 8.99961H12.6562C12.88 8.99961 13.0946 8.91072 13.2529 8.75248C13.4111 8.59425 13.5 8.37964 13.5 8.15586C13.5 7.93209 13.4111 7.71747 13.2529 7.55924C13.0946 7.40101 12.88 7.31211 12.6562 7.31211H0.84375ZM0 11.5309C0 11.3071 0.0888947 11.0925 0.247129 10.9342C0.405362 10.776 0.619974 10.6871 0.84375 10.6871H12.6562C12.88 10.6871 13.0946 10.776 13.2529 10.9342C13.4111 11.0925 13.5 11.3071 13.5 11.5309C13.5 11.7546 13.4111 11.9692 13.2529 12.1275C13.0946 12.2857 12.88 12.3746 12.6562 12.3746H0.84375C0.619974 12.3746 0.405362 12.2857 0.247129 12.1275C0.0888947 11.9692 0 11.7546 0 11.5309ZM0.84375 14.0621C0.619974 14.0621 0.405362 14.151 0.247129 14.3092C0.0888947 14.4675 0 14.6821 0 14.9059C0 15.1296 0.0888947 15.3442 0.247129 15.5025C0.405362 15.6607 0.619974 15.7496 0.84375 15.7496H8.15625C8.38003 15.7496 8.59464 15.6607 8.75287 15.5025C8.91111 15.3442 9 15.1296 9 14.9059C9 14.6821 8.91111 14.4675 8.75287 14.3092C8.59464 14.151 8.38003 14.0621 8.15625 14.0621H0.84375Z" fill="#3D2014"/>
</svg>
