<svg width="86" height="86" viewBox="0 0 86 86" fill="none" xmlns="http://www.w3.org/2000/svg">
<circle cx="43" cy="43" r="43" fill="#FDF9D2"/>
<g clip-path="url(#clip0_303_28827)">
<path d="M44.25 48H41.75V53H44.25V48Z" fill="#5D4135"/>
<path d="M50.5 45.5H48V53H50.5V45.5Z" fill="#5D4135"/>
<path d="M38 40.5H35.5V53H38V40.5Z" fill="#5D4135"/>
<path d="M54.25 29.25H50.5V28C50.5 27.337 50.2366 26.7011 49.7678 26.2322C49.2989 25.7634 48.663 25.5 48 25.5H38C37.337 25.5 36.7011 25.7634 36.2322 26.2322C35.7634 26.7011 35.5 27.337 35.5 28V29.25H31.75C31.087 29.25 30.4511 29.5134 29.9822 29.9822C29.5134 30.4511 29.25 31.087 29.25 31.75V58C29.25 58.663 29.5134 59.2989 29.9822 59.7678C30.4511 60.2366 31.087 60.5 31.75 60.5H54.25C54.913 60.5 55.5489 60.2366 56.0178 59.7678C56.4866 59.2989 56.75 58.663 56.75 58V31.75C56.75 31.087 56.4866 30.4511 56.0178 29.9822C55.5489 29.5134 54.913 29.25 54.25 29.25ZM38 28H48V33H38V28ZM54.25 58H31.75V31.75H35.5V35.5H50.5V31.75H54.25V58Z" fill="#5D4135"/>
</g>
<defs>
<clipPath id="clip0_303_28827">
<rect width="40" height="40" fill="white" transform="translate(23 23)"/>
</clipPath>
</defs>
</svg>
