<svg width="80" height="80" viewBox="0 0 80 80" fill="none" xmlns="http://www.w3.org/2000/svg">
<rect width="80" height="80" rx="40" fill="#401D13"/>
<path d="M40.3631 40.5C46.0602 40.5 50.6786 35.9109 50.6786 30.25C50.6786 24.5891 46.0602 20 40.3631 20C34.6659 20 30.0475 24.5891 30.0475 30.25C30.0475 35.9109 34.6659 40.5 40.3631 40.5Z" fill="white"/>
<path d="M37.6751 48.933L40.3659 51.6082L43.0583 48.933L40.8419 43.4288H39.89L37.6751 48.933Z" fill="white"/>
<path d="M43.3136 52.8146L42.4441 53.6785C41.8919 54.2239 41.1449 54.5301 40.3663 54.5301C39.5876 54.5301 38.8406 54.2239 38.2884 53.6785L35.5916 50.9989C35.1822 50.5968 34.902 50.083 34.7866 49.5225C34.6711 48.9621 34.7257 48.3803 34.9432 47.8507L36.9032 42.96C35.2293 42.5078 33.6618 41.7315 32.2907 40.6757C29.1498 41.9979 26.389 44.0752 24.2565 46.7206C22.1241 49.3661 20.6868 52.4967 20.0741 55.831C19.956 56.4588 19.9793 57.1048 20.1424 57.7225C20.3055 58.3403 20.6042 58.9145 21.0172 59.4038C21.4345 59.9026 21.9571 60.3041 22.5479 60.5799C23.1387 60.8557 23.7833 60.9991 24.4361 60.9999H44.1093C43.5892 60.1104 43.3146 59.1001 43.3136 58.0714V52.8146Z" fill="white"/>
<path d="M50.5663 41.7299C49.8833 41.3321 49.1744 40.9798 48.4442 40.6757C47.0731 41.7315 45.5056 42.5078 43.8317 42.9599L45.0106 45.9178C45.2137 45.7034 45.4356 45.5074 45.6737 45.3321L50.0947 42.0374C50.2426 41.9215 50.4004 41.8186 50.5663 41.7299Z" fill="white"/>
<path d="M59.8211 47.675L55.4001 44.3804C54.8893 44.0018 54.269 43.7972 53.6317 43.7972C52.9944 43.7972 52.3742 44.0018 51.8634 44.3804L47.4424 47.675C47.0771 47.9485 46.7806 48.3024 46.576 48.7089C46.3715 49.1154 46.2645 49.5634 46.2635 50.0179V58.0714C46.2635 58.8481 46.574 59.593 47.1267 60.1422C47.6795 60.6915 48.4291 61 49.2108 61H52.1581V55.1429C52.1581 54.7545 52.3133 54.3821 52.5897 54.1075C52.8661 53.8329 53.2409 53.6786 53.6317 53.6786C54.0226 53.6786 54.3974 53.8329 54.6738 54.1075C54.9501 54.3821 55.1054 54.7545 55.1054 55.1429V61H58.0527C58.8344 61 59.584 60.6915 60.1368 60.1422C60.6895 59.593 61 58.8481 61 58.0714V50.0179C60.999 49.5634 60.892 49.1154 60.6875 48.7089C60.4829 48.3024 60.1864 47.9485 59.8211 47.675Z" fill="white"/>
</svg>
