<svg width="17" height="27" viewBox="0 0 17 27" fill="none" xmlns="http://www.w3.org/2000/svg">
<path d="M3.42474 17.054C3.48374 17.0114 3.54148 16.9775 3.59922 16.9524C3.63186 16.9373 3.6645 16.926 3.7009 16.9172C3.72852 16.911 3.75864 16.9059 3.79128 16.9059C3.81638 16.9059 3.844 16.9084 3.87161 16.916C3.89923 16.9235 3.9281 16.9348 3.95321 16.9499C4.00593 16.98 4.04484 17.0264 4.06743 17.0691C4.0825 17.098 4.09254 17.1256 4.09881 17.1507C4.10509 17.1745 4.10635 17.1971 4.1076 17.2184C4.13773 17.1984 4.16535 17.1808 4.19547 17.1645C4.2143 17.1544 4.23438 17.1444 4.26325 17.1344C4.27832 17.1293 4.29589 17.1243 4.32225 17.1206C4.33983 17.118 4.3574 17.1168 4.37497 17.1168C4.42016 17.1168 4.47163 17.1256 4.52184 17.1482C4.57205 17.1708 4.61849 17.2097 4.64862 17.2548C4.66996 17.285 4.68376 17.3163 4.69381 17.3465C4.70636 17.3866 4.71138 17.4243 4.71138 17.4594C4.71138 17.4808 4.70887 17.4996 4.70636 17.5197C4.7277 17.5234 4.75029 17.5297 4.77038 17.5385C4.81431 17.5561 4.85197 17.5824 4.8821 17.6113C4.9436 17.6703 4.97373 17.7355 4.99005 17.7958C5.00134 17.836 5.00637 17.8761 5.00637 17.915C5.00637 17.9401 5.00386 17.9652 5.00009 17.9916C4.99507 18.0217 4.98629 18.043 4.97875 18.0606C5.02394 18.1008 5.05156 18.1434 5.07039 18.1798C5.08419 18.2062 5.09298 18.23 5.10177 18.2539C5.11432 18.289 5.11683 18.3204 5.11683 18.3455C5.11683 18.397 5.10554 18.4284 5.09675 18.4547C5.08796 18.4811 5.07792 18.5011 5.06788 18.52C5.0478 18.5576 5.02645 18.5928 5.0026 18.6279C4.97248 18.6731 4.93858 18.7208 4.9072 18.7672L7.38383 17.9539L6.18506 14.3066C6.18506 14.3066 2.70046 15.6584 2.62891 15.637L3.29671 17.1645C3.33938 17.1231 3.38206 17.0867 3.426 17.0565L3.42474 17.054Z" fill="#550000"/>
<path d="M5.12063 13.7329L2.73438 15.3821L5.32398 14.3793L5.12063 13.7329Z" fill="#987555"/>
<path d="M2.44414 15.3257L0.5625 13.7744L0.593882 14.3267L2.44414 15.3257Z" fill="#987555"/>
<path d="M3.13313 18.7859C3.08166 18.6478 3.03899 18.5085 3.00635 18.3742C2.96869 18.2161 2.9461 18.0655 2.9461 17.9274C2.9461 17.8534 2.95237 17.7806 2.9712 17.709C3.00258 17.5923 3.05028 17.4894 3.10677 17.399L2.33227 15.598L0 14.2588L1.52891 18.0303L3.13313 18.7871V18.7859Z" fill="#550000"/>
<path d="M12.8015 6.68826C14.1383 6.70081 15.371 6.80373 16.379 6.9694C16.2484 4.97883 14.5764 3.63965 12.5328 3.63965C10.4893 3.63965 8.81601 4.97883 8.68546 6.9694C8.57123 6.98948 8.45951 7.00831 8.35156 7.02839V7.56306C8.46077 7.54297 8.57249 7.52289 8.68797 7.50407C9.76247 7.32584 11.0931 7.22167 12.5328 7.22167C13.9726 7.22167 15.3032 7.3271 16.3777 7.50407C16.4957 7.52415 16.6124 7.54423 16.7242 7.56556V7.0309C16.6137 7.00956 16.4982 6.98948 16.3802 6.9694C15.3722 6.80373 14.1396 6.70081 12.8027 6.68826H12.8015Z" fill="#550000"/>
<path d="M8.7522 7.66629C8.71454 7.66378 8.6819 7.69265 8.67939 7.7303L8.60156 8.98037V8.99794C8.60658 9.07827 8.67562 9.13977 8.75721 9.13475C8.83755 9.12973 8.89906 9.0607 8.89404 8.97912L8.81621 7.72905C8.8137 7.69516 8.78734 7.66755 8.7522 7.66504V7.66629Z" fill="#550000"/>
<path d="M9.34985 7.58023C9.31219 7.57772 9.27955 7.60659 9.27704 7.64424L9.19922 8.88427V8.90309C9.20424 8.98342 9.27328 9.04492 9.35487 9.0399C9.43521 9.03488 9.49672 8.96585 9.4917 8.88427L9.41387 7.64424C9.41136 7.61035 9.385 7.58274 9.34985 7.58023Z" fill="#550000"/>
<path d="M9.9475 7.51285C9.90984 7.51034 9.87721 7.53921 9.8747 7.57686L9.79688 8.81312V8.83195C9.8019 8.91227 9.87093 8.97377 9.95253 8.96875C10.0329 8.96373 10.0944 8.8947 10.0893 8.81312L10.0115 7.57686C10.009 7.54297 9.98265 7.51536 9.9475 7.51285Z" fill="#550000"/>
<path d="M10.5491 7.46255C10.5114 7.46004 10.4788 7.48891 10.4763 7.52657L10.3984 8.76157V8.7804C10.4035 8.86072 10.4725 8.92222 10.5541 8.9172C10.6344 8.91218 10.6959 8.84315 10.6909 8.76157L10.6131 7.52657C10.6106 7.49268 10.5842 7.46506 10.5491 7.46255Z" fill="#550000"/>
<path d="M11.2068 7.48994C11.2043 7.45606 11.178 7.42844 11.1428 7.42593C11.1052 7.42342 11.0725 7.45229 11.07 7.48994L10.9922 8.7237V8.74252C10.9972 8.82285 11.0662 8.88435 11.1478 8.87933C11.2282 8.87431 11.2897 8.80528 11.2847 8.7237L11.2068 7.48994Z" fill="#550000"/>
<path d="M11.8862 8.69901L11.8084 7.4753C11.8059 7.44141 11.7795 7.4138 11.7444 7.41128C11.7067 7.40877 11.6741 7.43764 11.6716 7.4753L11.5938 8.69901V8.71783C11.5988 8.79816 11.6691 8.85966 11.7494 8.85464C11.8297 8.84962 11.8912 8.77933 11.8862 8.69901Z" fill="#550000"/>
<path d="M12.4839 8.6852L12.4061 7.4753C12.4035 7.44141 12.3772 7.4138 12.342 7.41128C12.3044 7.40877 12.2717 7.43764 12.2692 7.4753L12.1914 8.6852V8.70403C12.1964 8.78435 12.2667 8.84585 12.3471 8.84083C12.4274 8.83581 12.4889 8.76553 12.4839 8.6852Z" fill="#550000"/>
<path d="M12.9397 7.41128C12.902 7.40877 12.8694 7.43764 12.8669 7.4753L12.7891 8.68269V8.70152C12.7941 8.78184 12.8644 8.84334 12.9447 8.83832C13.0251 8.8333 13.0866 8.76302 13.0815 8.68269L13.0037 7.4753C13.0012 7.44141 12.9748 7.4138 12.9397 7.41128Z" fill="#550000"/>
<path d="M13.6792 8.69022L13.6014 7.4753C13.5989 7.44141 13.5725 7.4138 13.5374 7.41128C13.4997 7.40877 13.4671 7.43764 13.4645 7.4753L13.3867 8.69022V8.70905C13.3917 8.78937 13.462 8.85087 13.5424 8.84585C13.6227 8.84083 13.6842 8.7718 13.6792 8.69022Z" fill="#550000"/>
<path d="M14.1389 7.43765C14.1013 7.43514 14.0686 7.46401 14.0661 7.50166L13.9883 8.7078V8.72663C13.9933 8.80695 14.0636 8.86845 14.1439 8.86343C14.2243 8.85841 14.2858 8.78813 14.2808 8.7078L14.2029 7.50166C14.2004 7.46777 14.1741 7.44016 14.1389 7.43765Z" fill="#550000"/>
<path d="M14.7366 7.47916C14.6989 7.47665 14.6663 7.50551 14.6638 7.54317L14.5859 8.73801V8.75683C14.591 8.83716 14.6613 8.89866 14.7416 8.89364C14.8219 8.88862 14.8834 8.81834 14.8784 8.73801L14.8006 7.54317C14.7981 7.50928 14.7717 7.48167 14.7366 7.47916Z" fill="#550000"/>
<path d="M15.3381 7.53433C15.3005 7.53182 15.2678 7.56069 15.2653 7.59834L15.1875 8.78189V8.80072C15.1925 8.88104 15.2628 8.94254 15.3432 8.93752C15.4235 8.9325 15.485 8.86222 15.48 8.78189L15.4021 7.59834C15.3996 7.56446 15.3733 7.53684 15.3381 7.53433Z" fill="#550000"/>
<path d="M15.9319 7.60806C15.8942 7.60555 15.8616 7.63442 15.8591 7.67207L15.7812 8.84182V8.86064C15.7863 8.94097 15.8566 9.00247 15.9369 8.99745C16.0172 8.99243 16.0787 8.92214 16.0737 8.84182L15.9959 7.67207C15.9934 7.63819 15.967 7.61057 15.9319 7.60806Z" fill="#550000"/>
<path d="M16.5334 7.70132C16.4958 7.69881 16.4631 7.72768 16.4606 7.76533L16.3828 8.92127V8.94135C16.3878 9.02168 16.4581 9.08318 16.5385 9.07816C16.6188 9.07314 16.6803 9.00285 16.6753 8.92253L16.5975 7.76659C16.595 7.7327 16.5686 7.70509 16.5334 7.70258V7.70132Z" fill="#550000"/>
<path d="M14.3388 3.73899V3.43777C14.0413 3.31602 13.725 3.2244 13.3948 3.16667V2.17515C13.4664 2.1877 13.5392 2.20151 13.6095 2.21657V1.9417C13.6095 1.93166 13.612 1.92413 13.6145 1.9166C13.4225 1.87393 13.2254 1.84129 13.0245 1.82121C12.8726 1.81117 12.7145 1.80615 12.5526 1.80615C12.3505 1.80615 12.1559 1.81368 11.9701 1.82874C11.8233 1.84506 11.6789 1.86891 11.5371 1.89777V2.20025C11.6136 2.18393 11.6902 2.17013 11.768 2.15883V3.15035C11.4241 3.20306 11.094 3.29218 10.7852 3.41392V3.71514C11.3186 3.50554 11.9099 3.39258 12.5325 3.39258C13.1551 3.39258 13.7902 3.51307 14.3388 3.73773V3.73899Z" fill="url(#paint0_linear_1524_40518)"/>
<path d="M12.3486 1.31518V1.35785C12.2871 1.35911 12.2369 1.40931 12.2369 1.47081V1.65656C12.3348 1.65029 12.4339 1.64652 12.5344 1.64652C12.6662 1.64652 12.7954 1.65406 12.9235 1.66284V1.47207C12.9235 1.41057 12.8745 1.36162 12.8143 1.35911H12.8105V1.27502C12.8105 1.05538 12.8758 0.844523 12.9762 0.648729C13.0176 0.567148 13.0352 0.470507 13.0176 0.368845C12.9875 0.189367 12.8444 0.0425207 12.6662 0.00863336C12.38 -0.0465905 12.1289 0.17054 12.1289 0.447914C12.1289 0.529495 12.1515 0.607312 12.1892 0.672576C12.3021 0.86586 12.3486 1.09177 12.3486 1.31518Z" fill="url(#paint1_linear_1524_40518)"/>
<path d="M12.258 22.0938H11.8149C11.658 22.0938 11.5312 22.2205 11.5312 22.3774V22.5104H13.4669V22.3774C13.4669 22.2205 13.3401 22.0938 13.1832 22.0938H12.258Z" fill="url(#paint2_linear_1524_40518)"/>
<path d="M12.2586 25.874H8.68359V26.543H12.2586H12.7393H16.3143V25.874H12.7393H12.2586Z" fill="url(#paint3_linear_1524_40518)"/>
<path d="M12.2603 24.9463H9.97946L9.28906 25.6152H12.2603H12.741H15.7122L15.0218 24.9463H12.741H12.2603Z" fill="url(#paint4_linear_1524_40518)"/>
<path d="M12.8179 22.7676H12.1765C11.628 22.7676 11.1836 23.2119 11.1836 23.7604H13.8096C13.8096 23.2119 13.3652 22.7676 12.8167 22.7676H12.8179Z" fill="url(#paint5_linear_1524_40518)"/>
<path d="M12.257 24.019H10.58V24.3366L10.2109 24.6943H12.257H12.7378H14.7839L14.4148 24.3366V24.019H12.7378H12.257Z" fill="url(#paint6_linear_1524_40518)"/>
<path d="M11.7535 11.606H13.2447C13.5196 11.606 13.7443 11.3813 13.7443 11.1065C13.7443 10.8316 13.5196 10.6069 13.2447 10.6069H11.7535C11.4786 10.6069 11.2539 10.8316 11.2539 11.1065C11.2539 11.3813 11.4786 11.606 11.7535 11.606Z" fill="url(#paint7_linear_1524_40518)"/>
<path d="M13.4669 12.3051C13.4669 12.1482 13.3401 12.0215 13.1832 12.0215H11.8149C11.658 12.0215 11.5312 12.1482 11.5312 12.3051V12.4382H13.4669V12.3051Z" fill="url(#paint8_linear_1524_40518)"/>
<path d="M12.7397 12.7646H11.9627V21.3959C11.9627 21.5164 11.925 21.6331 11.8535 21.731L11.7656 21.8527H13.233L13.1452 21.731C13.0749 21.6344 13.0359 21.5164 13.0359 21.3959V12.7646H12.7397Z" fill="url(#paint9_linear_1524_40518)"/>
<path d="M12.4604 9.25146C12.0172 9.25146 11.6043 9.29665 11.2578 9.37697L11.7549 10.3359H13.2461L13.7344 9.39329C13.3729 9.30418 12.9336 9.25146 12.4604 9.25146Z" fill="url(#paint10_linear_1524_40518)"/>
<path d="M7.93706 12.5453C7.6245 12.5453 7.36717 12.3131 7.327 12.0118L7.32449 12.0144C7.28181 11.9792 7.25043 11.9717 7.21779 11.9717C7.19018 11.9717 7.16131 11.9792 7.13746 11.9905C7.11361 12.0005 7.09729 12.0131 7.09227 12.0156L7.08976 12.0118C7.04833 12.3043 6.79853 12.5302 6.49351 12.5302C6.21107 12.5302 5.97634 12.3369 5.90981 12.0759H5.65625C5.71274 12.4474 6.00898 12.7398 6.38304 12.7913C6.35543 12.8377 6.32906 12.8854 6.31024 12.9368C6.21233 13.2017 6.20228 13.5669 6.29392 13.8568C6.432 13.7677 6.65794 13.6598 6.8751 13.7112C7.2203 13.7953 7.59939 13.9309 7.94584 13.838C8.11781 13.7916 8.22828 13.7351 8.29355 13.6899C8.30611 13.3535 8.09397 13.0398 7.95463 12.8703C7.91321 12.8339 7.84542 12.7724 7.76885 12.6934C7.92073 12.7523 8.02493 12.741 8.02493 12.741C8.39899 12.6996 8.60611 12.3997 8.60737 12.3984C8.67264 12.3005 8.7354 12.1963 8.77557 12.0859H8.53205C8.46301 12.3507 8.222 12.5453 7.9358 12.5453H7.93706ZM6.49978 12.7398C6.49978 12.7398 6.47969 12.677 6.56003 12.667C6.71568 12.6356 6.74205 12.9293 6.74205 12.9293C6.59267 12.9469 6.49853 12.8239 6.49978 12.7398ZM6.85251 12.9293C6.85251 12.9293 6.87762 12.6293 7.03829 12.6683C7.16633 12.6984 7.06339 12.9557 6.85251 12.9293Z" fill="#3D2014"/>
<path d="M7.93585 11.4658C7.80781 11.4658 7.69233 11.5173 7.60823 11.6014C7.52412 11.6855 7.47266 11.8009 7.47266 11.9289C7.47266 12.057 7.52412 12.1724 7.60823 12.2565C7.69233 12.3406 7.80781 12.3921 7.93585 12.3921C8.06388 12.3921 8.17937 12.3406 8.26347 12.2565C8.34757 12.1724 8.39904 12.057 8.39904 11.9289C8.39904 11.8009 8.34757 11.6855 8.26347 11.6014C8.17937 11.5173 8.06388 11.4658 7.93585 11.4658ZM7.93585 12.1574C7.80907 12.1574 7.70613 12.0545 7.70613 11.9277H8.16431C8.16431 12.0545 8.06137 12.1574 7.93459 12.1574H7.93585Z" fill="#3D2014"/>
<path d="M6.49095 11.4756C6.36543 11.4756 6.25371 11.5258 6.17086 11.6074C6.08927 11.6889 6.03906 11.8019 6.03906 11.9274C6.03906 12.0529 6.08927 12.1646 6.17086 12.2475C6.25246 12.329 6.36543 12.3792 6.49095 12.3792C6.61648 12.3792 6.7282 12.329 6.81104 12.2475C6.89263 12.1659 6.94284 12.0529 6.94284 11.9274C6.94284 11.8019 6.89263 11.6902 6.81104 11.6074C6.72945 11.5258 6.61648 11.4756 6.49095 11.4756ZM6.5035 12.1558C6.37672 12.1558 6.2738 12.0529 6.2738 11.9262H6.73196C6.73196 12.0529 6.62904 12.1558 6.50225 12.1558H6.5035Z" fill="#3D2014"/>
<path d="M5.89586 11.8495C5.93478 11.5546 6.18708 11.3262 6.49211 11.3262C6.77078 11.3262 7.00426 11.5157 7.0733 11.773C7.11347 11.7579 7.15991 11.7466 7.2164 11.7466C7.25531 11.7466 7.29799 11.7529 7.34067 11.768C7.41097 11.5056 7.65072 11.3124 7.93566 11.3124C8.25324 11.3124 8.51434 11.5521 8.54823 11.8596H8.81058L8.81811 11.8533C8.82188 11.5157 8.55074 11.1479 8.24572 11.025C7.86914 10.8731 7.38586 10.9635 7.17121 11.3312C7.15992 11.35 7.15112 11.3688 7.14234 11.3877C7.10719 11.3475 7.06828 11.3099 7.02686 11.2772C7.01807 11.2697 7.01054 11.2622 7.00677 11.2584C6.95782 11.217 6.90008 11.1869 6.84108 11.1643C6.73689 11.1191 6.6214 11.0927 6.49964 11.0927C6.06156 11.0927 5.70004 11.4228 5.65234 11.8483H5.89712L5.89586 11.8495Z" fill="#3D2014"/>
<path d="M8.43857 19.7979C8.55657 19.6825 8.69465 19.5896 8.84779 19.5243C8.93064 19.4892 9.01851 19.4616 9.10889 19.4415C9.08629 19.4402 9.06369 19.439 9.04235 19.439C8.98085 19.439 8.92687 19.4452 8.88168 19.4565C8.83774 19.4678 8.8026 19.4829 8.77498 19.5017C8.63314 19.5959 8.49004 19.6724 8.35447 19.749C8.21891 19.8243 8.09212 19.8971 7.98417 19.9799C7.98417 19.9799 7.9666 19.995 7.95153 20.01C7.93521 20.0251 7.91639 20.0452 7.89756 20.0665C7.85864 20.1092 7.81722 20.1594 7.78709 20.1996C7.76701 20.2259 7.7532 20.2498 7.75069 20.2548C7.74693 20.2623 7.74065 20.2774 7.73814 20.2924C7.73563 20.3 7.73438 20.3087 7.73438 20.3163C7.74944 20.3163 7.76324 20.3138 7.77956 20.3113C7.79839 20.3075 7.81848 20.3012 7.84233 20.2949C7.85864 20.2912 7.87622 20.2849 7.90258 20.2811C7.91764 20.2786 7.93522 20.2761 7.96032 20.2761C7.97789 20.2761 8.00048 20.2774 8.02685 20.2849C8.04442 20.2899 8.06576 20.2974 8.08585 20.3087C8.18125 20.113 8.29548 19.9423 8.43983 19.8017L8.43857 19.7979Z" fill="#3D2014"/>
<path d="M5.73438 12.6807C5.73565 12.6883 5.73692 12.6959 5.73947 12.7036L5.74329 12.6883L5.73438 12.6807Z" fill="#3D2014"/>
<path d="M7.45664 14.6966C7.81439 14.7091 8.18093 14.4255 8.28135 13.9824C8.14201 14.0841 7.93741 14.182 7.6964 14.1958C7.38509 14.2121 6.96332 13.951 6.68465 14.0439C6.5403 14.0916 6.48632 14.1945 6.46875 14.2824C6.65453 14.5221 6.91939 14.6363 7.23571 14.679C7.30475 14.6878 7.37756 14.6953 7.45664 14.6966Z" fill="#3D2014"/>
<path d="M5.39605 22.2397C5.39605 22.2397 5.5517 23.6128 6.08518 24.1173C6.10401 24.1148 6.12159 24.1135 6.14167 24.1123C6.2195 24.106 6.31113 24.1035 6.41155 24.101C6.61239 24.096 6.56469 24.0934 6.77683 24.0784C6.91617 24.0683 7.0442 24.052 7.12705 24.0307C7.1622 24.0219 7.1873 24.0131 7.19986 24.0068C7.20362 24.0006 7.2099 23.9905 7.21617 23.9755C7.23375 23.9378 7.25508 23.8788 7.27517 23.8023C7.31785 23.6504 7.35927 23.437 7.40195 23.1848C7.48856 22.6802 7.58396 22.0213 7.7371 21.331C7.74212 21.3084 7.74714 21.2858 7.75217 21.2632C7.7735 21.1678 7.79736 21.0762 7.82121 20.9884C7.7597 20.9971 7.6894 21.0072 7.61158 21.011C7.60781 21.0273 7.60405 21.0448 7.59777 21.0599V21.0624H7.59651C7.57392 21.1176 7.53752 21.1603 7.50237 21.1904C7.46597 21.2206 7.42957 21.2406 7.39442 21.2557C7.32412 21.2833 7.2576 21.2933 7.19232 21.2933C7.15718 21.2933 7.12203 21.2908 7.08562 21.2833C7.04922 21.2758 7.01156 21.2645 6.97014 21.2419C6.94504 21.2281 6.92621 21.213 6.90863 21.198L6.89357 21.2005C6.87474 21.2042 6.8534 21.2067 6.82955 21.2067H6.8283C6.78185 21.2067 6.72913 21.1955 6.68018 21.1729C6.64503 21.1565 6.61239 21.1339 6.58352 21.1076L6.32243 21.1478L6.25339 21.1139C6.21197 21.0925 6.17933 21.0662 6.15548 21.0398C6.13163 21.0135 6.11405 20.9884 6.10025 20.9645C6.07263 20.9168 6.05631 20.8729 6.04501 20.8352C6.02619 20.775 6.01866 20.7273 6.01489 20.706L5.86677 20.6507C5.75505 20.6093 5.56927 20.5353 5.35211 20.4474C5.13495 20.3596 4.88515 20.2566 4.64791 20.16C4.45585 20.0809 4.27259 20.0056 4.12195 19.9429C3.89224 20.0496 3.71776 20.2303 3.57592 20.4926C3.43282 20.7562 3.32487 21.1026 3.22947 21.5331C3.00352 22.5472 3.02361 23.2412 2.94076 23.6266C2.93574 23.6504 2.92946 23.673 2.92318 23.6943C2.86293 23.8788 2.72234 23.9441 2.62945 23.9679C2.30936 23.9843 1.97546 23.9792 1.81102 23.9968C1.76458 24.0018 1.73068 24.0094 1.7219 24.0156C1.70181 24.0282 1.66039 24.0633 1.61143 24.111C1.56122 24.1587 1.50097 24.2215 1.43821 24.288C1.31143 24.4223 1.27126 24.4574 1.17335 24.5704C1.10808 24.6457 1.06037 24.7022 1.05033 24.7185C1.01519 24.7712 0.897192 24.9896 0.898447 25.1741C0.898447 25.2393 0.912255 25.2983 0.948657 25.3473C0.956189 25.351 0.981293 25.3649 1.02272 25.3862C1.06791 25.021 1.21478 24.8327 1.22231 24.8239C1.35787 24.5993 1.49846 24.4399 1.67922 24.3118C1.73947 24.2692 1.79345 24.2428 1.83989 24.2415C1.85119 24.2415 1.86123 24.2428 1.87127 24.2466C1.89261 24.2541 1.91019 24.2654 1.92148 24.2817C1.93278 24.2968 1.9378 24.3156 1.9378 24.3332C1.9378 24.3809 1.90893 24.4323 1.86876 24.4838C1.8286 24.5352 1.77713 24.5854 1.72692 24.6269C1.72692 24.6269 1.70684 24.6457 1.67671 24.6783C1.64533 24.711 1.70182 24.6382 1.65663 24.6921C1.56499 24.8013 1.46206 24.9431 1.4131 25.0737C1.35285 25.2343 1.33277 25.4 1.32775 25.533C1.3629 25.5494 1.40055 25.5657 1.43946 25.5832C1.48214 25.2092 1.63278 25.0159 1.64031 25.0072C1.77587 24.7825 1.91647 24.6231 2.09722 24.4951C2.15748 24.4524 2.21145 24.426 2.2579 24.4248C2.26919 24.4248 2.27924 24.426 2.28928 24.4298C2.31062 24.4373 2.32819 24.4499 2.33949 24.465C2.35078 24.48 2.35581 24.4988 2.35581 24.5164C2.35581 24.5641 2.32693 24.6156 2.28676 24.667C2.2466 24.7185 2.19513 24.7687 2.14492 24.8101C2.14492 24.8101 2.12484 24.8289 2.09471 24.8616C2.06333 24.8942 2.11982 24.8214 2.07463 24.8754C1.98299 24.9846 1.88006 25.1264 1.8311 25.2569C1.77587 25.405 1.75454 25.5594 1.747 25.6862C1.79094 25.6962 1.83487 25.7037 1.87881 25.71C1.92651 25.5318 2.04073 25.2268 2.2943 24.9783C2.50267 24.7737 2.53782 24.7712 2.62317 24.721C2.65204 24.7047 2.6759 24.6946 2.69849 24.6946C2.71481 24.6946 2.72987 24.7009 2.73992 24.7122C2.74996 24.7235 2.75623 24.7386 2.76 24.7549C2.76377 24.7699 2.76502 24.785 2.76502 24.8001C2.76502 24.8553 2.74117 24.908 2.69347 24.9733C2.64452 25.0385 2.66836 24.9971 2.56167 25.1038C2.36961 25.2946 2.20643 25.528 2.13111 25.7263C2.31438 25.7238 2.4738 25.6862 2.55414 25.6121C2.642 25.533 2.71858 25.3787 2.82527 25.2268C2.93323 25.0749 2.97465 25.0436 3.19809 24.9758C3.22445 24.9682 3.23825 24.962 3.24579 24.9582C3.39642 24.9381 3.52696 24.9168 3.61107 24.8791L3.62738 24.8716C3.65249 24.8591 3.67132 24.844 3.68638 24.8289C3.72529 24.7863 3.85082 24.657 4.02028 24.4336C4.48221 23.8876 4.99311 23.3906 5.36968 22.33L5.40107 22.2409L5.39605 22.2397Z" fill="#3D2014"/>
<path d="M6.57002 19.3639L4.63942 19.0991C4.60428 19.0827 4.57541 19.0689 4.55281 19.0551C4.53147 19.0413 4.51516 19.03 4.50762 19.0137C4.50135 19.0012 4.49884 18.9861 4.49884 18.9723C4.49884 18.9321 4.51641 18.8844 4.54277 18.833C4.56913 18.7815 4.60553 18.7251 4.64194 18.6698C4.71725 18.5594 4.80009 18.4477 4.83148 18.3824C4.84026 18.3636 4.84529 18.3485 4.84529 18.3422V18.3385C4.83525 18.3096 4.82269 18.2845 4.80888 18.2682C4.79507 18.2519 4.78001 18.2444 4.76118 18.2444C4.74612 18.2444 4.72604 18.2506 4.70219 18.2657C4.6821 18.2782 4.64947 18.3109 4.61056 18.3535C4.57164 18.3962 4.52645 18.4502 4.48 18.5067C4.38586 18.6184 4.2867 18.7401 4.21138 18.8066C4.18251 18.8317 4.15741 18.8443 4.1323 18.8455C4.10594 18.8455 4.0846 18.828 4.07456 18.8054C4.06452 18.7828 4.05949 18.7552 4.05949 18.7238C4.05949 18.656 4.08083 18.5744 4.12226 18.5167C4.1436 18.4866 4.18377 18.4489 4.23398 18.4037C4.28419 18.3586 4.34444 18.3071 4.40595 18.2556C4.52896 18.1527 4.65574 18.0448 4.70721 17.9808C4.72227 17.9632 4.7298 17.9482 4.73106 17.9431C4.73231 17.9343 4.73357 17.9243 4.73357 17.913C4.73357 17.8804 4.72478 17.8465 4.70721 17.8214C4.68963 17.7963 4.66578 17.78 4.62938 17.78C4.6093 17.78 4.58545 17.785 4.55783 17.7975C4.5026 17.8214 4.40344 17.9042 4.30427 18.0021C4.20385 18.1 4.09966 18.213 4.02811 18.2983C3.98041 18.3548 3.94652 18.4025 3.94024 18.4188C3.92895 18.4464 3.91514 18.4891 3.89882 18.5318C3.8825 18.5744 3.86493 18.6159 3.84359 18.6447C3.82853 18.6636 3.81095 18.6799 3.78585 18.6799C3.77581 18.6799 3.76576 18.6774 3.75698 18.6711C3.73313 18.656 3.71932 18.6284 3.70928 18.5945C3.69923 18.5594 3.69421 18.5167 3.69421 18.469C3.69421 18.3598 3.72183 18.2255 3.78836 18.1201C3.83606 18.0448 3.9302 17.962 4.03313 17.8804C4.13606 17.7988 4.24527 17.7185 4.3231 17.6519C4.37456 17.608 4.41097 17.5691 4.4185 17.5465C4.43105 17.5126 4.43859 17.4825 4.43859 17.4574C4.43859 17.4323 4.43231 17.4135 4.42227 17.4022C4.41222 17.3909 4.39716 17.3834 4.37205 17.3834H4.35448C4.35448 17.3834 4.32937 17.3934 4.30678 17.4072C4.28293 17.421 4.25406 17.4398 4.22142 17.4637C4.15615 17.5101 4.07707 17.5716 3.99673 17.6369C3.83731 17.7662 3.67789 17.9055 3.63396 17.9519L3.62517 17.962C3.61764 17.9883 3.56743 18.1766 3.52099 18.292C3.50467 18.3322 3.49086 18.3611 3.47454 18.3786C3.46952 18.3837 3.4645 18.3874 3.45571 18.3887H3.44944C3.43186 18.3887 3.41931 18.3786 3.40801 18.3661C3.39672 18.3523 3.38668 18.336 3.37789 18.3146C3.36032 18.272 3.34651 18.2155 3.34651 18.1515C3.34651 18.1113 3.35153 18.0674 3.36408 18.0235C3.3917 17.9293 3.48584 17.7888 3.57873 17.6595C3.67162 17.5302 3.76576 17.4147 3.79087 17.3808C3.81346 17.352 3.8348 17.2905 3.8348 17.244C3.8348 17.2227 3.83104 17.2039 3.82225 17.1938C3.81472 17.1825 3.80468 17.1775 3.78459 17.1763C3.77706 17.1763 3.76827 17.1763 3.75949 17.18C3.69421 17.1964 3.58375 17.2553 3.47957 17.357C3.37412 17.4574 3.27496 17.5992 3.22726 17.78C3.21596 17.8214 3.21094 17.8728 3.21094 17.9306C3.21094 18.1477 3.28751 18.4627 3.40676 18.7665C3.52601 19.0689 3.68919 19.3589 3.86116 19.5308C3.87748 19.5383 3.98167 19.5823 4.13983 19.6488C4.3118 19.7216 4.54528 19.8195 4.79131 19.9237C5.26831 20.1232 5.79426 20.3416 6.02021 20.427C6.02272 20.3717 6.02774 20.319 6.03653 20.2676V20.2638C6.08172 19.9789 6.20097 19.763 6.31896 19.6137C6.41813 19.4869 6.51478 19.4066 6.56625 19.3689L6.57002 19.3639Z" fill="#3D2014"/>
<path d="M10.5821 23.5282H10.7152C10.7491 23.3098 10.8319 23.1052 10.9499 22.9295C10.9951 22.8618 11.0465 22.8003 11.1018 22.7413C11.0629 22.6697 11.0415 22.5894 11.0415 22.5078V22.3748C11.0415 22.2166 11.0905 22.0648 11.1733 21.9418C11.2035 21.8979 11.2386 21.8589 11.2763 21.8225C11.2763 21.7196 11.3064 21.618 11.3691 21.5314L11.457 21.4096C11.4671 21.3971 11.4721 21.3795 11.4721 21.3632V20.6917C11.4658 20.6829 11.4608 20.6729 11.4558 20.6641C11.3779 20.5386 11.2951 20.4181 11.2085 20.3026C11.1771 20.2863 11.147 20.27 11.1181 20.2537C10.8947 20.1357 10.6411 20.0014 10.3788 19.8772C10.3574 19.8671 10.3361 19.8571 10.316 19.8483C10.2495 19.8169 10.1804 19.7855 10.1126 19.7567C10.0762 19.7454 10.0386 19.7366 10.0009 19.7316C9.8302 19.704 9.6758 19.6914 9.53396 19.6914C9.08834 19.6914 8.78205 19.827 8.55234 20.1068C8.32137 20.3867 8.16949 20.8147 8.03894 21.3983C7.81425 22.4124 7.71509 23.3713 7.57324 23.8859C7.5519 23.9625 7.52931 24.0277 7.50672 24.0842C7.45274 24.1922 7.38872 24.2511 7.33098 24.2838C7.24687 24.2926 7.15775 24.2988 7.06737 24.3026C6.74603 24.3189 6.41087 24.3152 6.24769 24.3315C6.20124 24.3365 6.16735 24.344 6.15857 24.3503C6.13848 24.3628 6.09706 24.398 6.0481 24.4457C5.99789 24.4946 5.93764 24.5561 5.87488 24.6226C5.7481 24.7569 5.72048 24.7833 5.62257 24.8963C5.55729 24.9716 5.51085 25.0293 5.49956 25.0456C5.46441 25.0971 5.34641 25.3155 5.34767 25.5C5.34767 25.5652 5.36147 25.6255 5.39787 25.6732C5.4054 25.6782 5.43051 25.6907 5.47194 25.7121C5.51713 25.3468 5.66399 25.1586 5.67153 25.1498C5.80709 24.9251 5.93387 24.7745 6.11588 24.6465C6.17614 24.6038 6.23011 24.5762 6.27655 24.5762C6.28785 24.5762 6.29789 24.5775 6.30794 24.5812C6.32928 24.5888 6.34685 24.6013 6.35815 24.6164C6.36945 24.6314 6.37447 24.649 6.37447 24.6678C6.37447 24.7155 6.3456 24.767 6.30543 24.8184C6.26526 24.8699 6.2138 24.9214 6.16359 24.9615C6.16359 24.9615 6.1435 24.9803 6.11337 25.013L6.10584 25.0193C6.01421 25.1272 5.91128 25.269 5.86232 25.3983C5.80207 25.5589 5.78198 25.7246 5.77696 25.8577C5.81211 25.874 5.84977 25.8903 5.88868 25.9079C5.93136 25.5338 6.08325 25.3406 6.08952 25.3318C6.22509 25.1071 6.35188 24.9565 6.53389 24.8285C6.59414 24.7858 6.64811 24.7595 6.69456 24.7582C6.70586 24.7582 6.7159 24.7595 6.72594 24.7632C6.74728 24.7707 6.76486 24.7833 6.77615 24.7984C6.78745 24.8134 6.79247 24.831 6.79247 24.8498C6.79247 24.8975 6.7636 24.949 6.72343 25.0004C6.68327 25.0519 6.6318 25.1033 6.58159 25.1448C6.58159 25.1448 6.5615 25.1636 6.53138 25.1962L6.52384 25.2025C6.43221 25.3117 6.33054 25.4523 6.28158 25.5815C6.22635 25.7309 6.20501 25.884 6.19748 26.012C6.24016 26.0221 6.28535 26.0296 6.32928 26.0359C6.37698 25.8577 6.49121 25.5514 6.74477 25.3042C6.95314 25.0996 6.97573 25.1059 7.06109 25.0557C7.08996 25.0393 7.11256 25.0293 7.13516 25.0293C7.15147 25.0293 7.16654 25.0356 7.17784 25.0469C7.18788 25.0582 7.19415 25.0732 7.19792 25.0895C7.20168 25.1059 7.20294 25.1197 7.20294 25.136C7.20294 25.1912 7.17909 25.2439 7.13014 25.3092C7.08118 25.3744 7.11884 25.323 7.01214 25.4309C6.82134 25.6217 6.6569 25.8551 6.58159 26.0534C6.76486 26.0509 6.92553 26.0133 7.00461 25.9392C7.09248 25.8589 7.16779 25.7045 7.27574 25.5527C7.3837 25.4008 7.41257 25.3782 7.63475 25.3104C7.96363 25.2088 7.9197 25.2966 8.13309 25.2376C8.20464 25.2176 8.25736 25.1912 8.28623 25.1586C8.33518 25.1033 8.52975 24.9076 8.77076 24.5511C9.01177 24.1959 9.29797 23.6826 9.52643 22.9973L9.54149 22.9521L9.55906 22.9961C9.66325 23.2433 9.83899 23.5671 10.1202 23.8583C10.144 23.788 10.1829 23.724 10.2357 23.6713C10.3273 23.5797 10.4528 23.5282 10.5821 23.5282Z" fill="#3D2014"/>
<path d="M11.4584 15.1142C11.0705 14.6511 10.6701 14.1805 10.5219 14.0186C10.478 14.0939 10.3161 14.3549 10.0135 14.6172C9.6558 14.9272 9.10097 15.2372 8.31894 15.2372C8.20723 15.2372 8.09175 15.231 7.97124 15.2172C7.97124 15.2172 7.95994 15.2147 7.93735 15.2096C7.91475 15.2059 7.88337 15.1996 7.84195 15.1933C7.76035 15.182 7.64738 15.1707 7.51558 15.1707C7.2934 15.1707 7.02352 15.2046 6.78125 15.3238L7.04612 16.0832L7.04109 16.0907L7.07624 16.1899L7.45282 17.2705L7.5319 17.4964L7.69508 17.9708L6.90803 18.4139L7.07624 18.7289C7.20428 18.6059 8.0704 17.8441 9.88174 17.8441C10.2106 17.8441 10.5709 17.8704 10.9625 17.9282C10.886 17.7826 10.5608 17.1374 10.424 16.4898L10.4002 16.3781L10.4567 16.4773C10.5596 16.658 10.906 17.2278 11.4747 17.8365V15.1318C11.4696 15.1255 11.4634 15.1193 11.4584 15.113V15.1142Z" fill="#3D2014"/>
<path d="M9.7731 18.1727C9.21326 18.1727 8.78396 18.2455 8.60571 18.2819C8.54672 18.2932 8.51407 18.302 8.51407 18.302C8.05465 18.366 7.40568 18.7664 6.96634 19.3299L6.96509 19.3324C6.83203 19.4454 6.27971 19.9612 6.27344 20.6565C6.27344 20.659 6.27595 20.6691 6.27846 20.6841C6.28222 20.703 6.28724 20.7268 6.29603 20.7532C6.31109 20.8034 6.33746 20.8548 6.36884 20.8724L6.44541 20.8611C6.43034 20.8285 6.40901 20.7594 6.40901 20.6327C6.40901 20.5561 6.41654 20.4595 6.43913 20.3365C6.44164 20.3177 6.44541 20.3013 6.44792 20.285V20.2838C6.44792 20.2838 6.45419 20.2624 6.46926 20.2398C6.48432 20.2172 6.51193 20.1921 6.5521 20.1846L6.57595 20.1796L6.57345 20.2034C6.56968 20.2411 6.56842 20.2775 6.56842 20.3126C6.56842 20.4695 6.60106 20.6026 6.63871 20.703C6.67637 20.8021 6.72157 20.8699 6.74542 20.895C6.77931 20.9326 6.80944 20.9414 6.83203 20.9414C6.84584 20.9414 6.85839 20.9377 6.86717 20.9339C6.72658 20.6992 6.68516 20.4017 6.68516 20.1859C6.68516 20.0767 6.6952 19.9901 6.71027 19.9399C6.71529 19.9236 6.72031 19.911 6.72784 19.901C6.7542 19.8696 6.78558 19.8595 6.81068 19.8595C6.8383 19.8595 6.85839 19.8708 6.85964 19.8708L6.86969 19.8771V19.8897C6.84835 20.0189 6.83956 20.1344 6.83956 20.2386C6.83956 20.4984 6.89103 20.6829 6.95002 20.8071C7.00777 20.9301 7.07555 20.9941 7.10066 21.008C7.12325 21.0205 7.15839 21.028 7.19731 21.028C7.23245 21.028 7.27011 21.0218 7.30024 21.0092C7.33037 20.9967 7.3517 20.9791 7.36049 20.9578C7.36426 20.949 7.36552 20.9402 7.36552 20.9339C7.36552 20.9151 7.35422 20.9 7.33915 20.8875C7.32409 20.8762 7.30651 20.8686 7.29898 20.8661H7.29648C7.14459 20.8335 7.05421 20.7193 7.004 20.5837C6.95253 20.4482 6.93998 20.2888 6.93998 20.157C6.93998 20.0189 6.95505 19.9098 6.95756 19.8922C6.96007 19.8721 6.97513 19.8596 6.99019 19.8533C7.00526 19.847 7.02157 19.8457 7.03664 19.8457C7.06676 19.8457 7.09563 19.852 7.09563 19.852L7.10944 19.8558V19.8708C7.10944 19.8708 7.10944 19.8859 7.10944 19.9123C7.10944 20.0277 7.11697 20.3591 7.18726 20.5511C7.21111 20.6151 7.24124 20.6628 7.27639 20.6816C7.363 20.7306 7.45965 20.7456 7.55631 20.7456C7.66677 20.7456 7.77724 20.7256 7.87515 20.7118C7.92411 20.7055 7.95046 20.6879 7.96553 20.6678C7.98059 20.6477 7.98561 20.6226 7.98561 20.6001C7.98561 20.5724 7.97808 20.5473 7.97557 20.5373V20.5323L7.97306 20.5298V20.526C7.97306 20.5172 7.97055 20.5135 7.97055 20.5135H7.96302C7.94796 20.5122 7.91658 20.5222 7.87641 20.5323C7.83624 20.5436 7.78603 20.5536 7.72829 20.5536C7.70318 20.5536 7.67682 20.5511 7.64795 20.5461C7.59146 20.536 7.55003 20.5059 7.52618 20.4658C7.50108 20.4256 7.4923 20.3779 7.4923 20.329C7.4923 20.2612 7.51113 20.1921 7.53749 20.1382C7.58895 20.0378 7.75464 19.8457 7.84251 19.7792C8.09356 19.591 8.38855 19.4655 8.64463 19.2935C8.75383 19.2207 8.89066 19.1906 9.04631 19.1906C9.35887 19.1906 9.748 19.3136 10.1384 19.478C10.53 19.6424 10.9242 19.8495 11.2455 20.0202C11.3208 20.0604 11.3987 20.103 11.4765 20.147V18.4124C10.8614 18.2267 10.2677 18.1689 9.77436 18.1689L9.7731 18.1727Z" fill="#3D2014"/>
<path d="M13.791 20.0656C13.791 19.6803 13.6692 19.2435 13.6052 18.9762C13.5813 18.877 13.555 18.7779 13.5273 18.6787V20.7484C13.5462 20.7345 13.5638 20.7207 13.5813 20.7044C13.737 20.5563 13.791 20.3241 13.791 20.0656Z" fill="#3D2014"/>
<path d="M8.30375 9.5918C7.45645 9.5918 6.71334 10.0763 6.28906 10.8067C6.33551 10.7979 6.38447 10.7929 6.43342 10.7904C6.58656 10.7904 6.86272 10.8243 7.08992 11.0427C7.06858 11.0226 7.31461 10.8218 7.32591 10.813C7.70374 10.5331 8.24225 10.5896 8.59372 10.882C8.69163 10.9636 8.79457 11.064 8.86612 11.1694C8.95273 11.295 9.0431 11.4543 9.08327 11.6037C9.08578 11.6125 9.08704 11.6213 9.08829 11.6288L10.2356 10.6774C9.80128 10.0198 9.09833 9.5918 8.3025 9.5918H8.30375Z" fill="#3D2014"/>
<path d="M11.4779 11.8095C11.4779 11.6778 11.4553 11.5522 11.4139 11.438C11.3775 11.3364 11.326 11.2435 11.2645 11.1632C11.144 11.005 10.9796 10.8921 10.7925 10.8494C10.7385 10.8368 10.6821 10.8306 10.6243 10.8306C10.5314 10.8306 10.4423 10.8481 10.3595 10.8795V10.877C10.3595 10.877 10.3507 10.8808 10.3469 10.882L9.12428 11.8961C9.1268 12.1446 9.04897 12.3919 8.89834 12.6028C8.82177 12.7132 8.66862 12.8676 8.45649 12.9755C8.57825 13.1952 8.6749 13.4725 8.64603 13.7725C8.59959 14.2394 8.32468 14.6347 7.95312 14.8217C8.06861 14.8406 8.1866 14.8506 8.30711 14.8506C9.38287 14.8506 10.2917 14.0687 10.5904 12.9918C10.2967 12.8651 10.1586 12.6617 10.1586 12.6617C10.3344 12.7647 10.4963 12.7985 10.6369 12.7948V12.7898C10.8076 12.7873 10.9645 12.727 11.0963 12.6266C11.326 12.4509 11.4779 12.1522 11.4779 11.812V11.8095ZM10.5616 12.4547C10.5653 12.4396 10.5678 12.4233 10.5703 12.407C10.6406 11.9514 10.4084 11.3339 10.4084 11.3339C10.4084 11.3339 10.6971 11.3037 10.8628 11.4945C10.8942 11.5309 10.9218 11.5761 10.9419 11.6313C10.957 11.674 10.9695 11.7204 10.9745 11.7756C11.0197 12.2526 10.5628 12.4559 10.5628 12.4559L10.5616 12.4547Z" fill="#3D2014"/>
<path d="M16.8564 19.4092C16.7622 18.9549 16.6355 18.5219 16.5074 18.1403C16.3593 17.6985 16.1873 17.263 16.0116 16.8325L16.0091 16.8614C15.8359 16.4284 15.5396 15.6803 15.4718 15.5084C15.3024 15.0754 15.1492 14.6436 15.0287 14.2094C14.9082 13.7764 14.8216 13.3396 14.7852 12.8991C14.7802 12.8351 14.7777 12.7736 14.7802 12.7158C14.7852 12.5665 14.8116 12.4422 14.8543 12.3406C14.8856 12.264 14.9258 12.2012 14.9722 12.1473C15.0425 12.0657 15.1304 12.0042 15.2446 11.9603C15.3576 11.9163 15.4982 11.8925 15.6677 11.8988C15.7103 11.9 15.7555 11.9038 15.8045 11.9101C15.8497 11.9289 15.9388 11.9703 16.0292 12.0381C16.0907 12.0845 16.1522 12.141 16.2011 12.2075C16.2514 12.274 16.2903 12.3481 16.3129 12.4385C16.3493 12.5866 16.4798 12.6857 16.6242 12.6895C16.6543 12.6895 16.6844 12.687 16.7158 12.6794C16.8627 12.643 16.9618 12.5125 16.9669 12.3682C16.9669 12.338 16.9656 12.3067 16.9568 12.2753C16.9079 12.082 16.82 11.9188 16.7183 11.7883C16.5652 11.5925 16.3869 11.467 16.2451 11.3867C16.1045 11.3064 15.999 11.2725 15.984 11.2675C15.9652 11.2612 15.9463 11.2574 15.9262 11.2549C15.8459 11.2436 15.7668 11.2373 15.689 11.2348C15.4718 11.2285 15.2672 11.2536 15.0764 11.3164C14.9346 11.3628 14.8028 11.4294 14.6848 11.516C14.5091 11.6452 14.3672 11.8184 14.2718 12.0205C14.1764 12.2226 14.1262 12.451 14.1187 12.6957C14.1162 12.7798 14.1187 12.8664 14.1249 12.9543C14.1664 13.4463 14.2618 13.9232 14.3911 14.3876C14.5844 15.0854 14.8517 15.7557 15.1216 16.4121C15.2547 16.7359 15.6476 17.7111 15.866 18.2583L15.8622 18.2997C15.8672 18.316 15.8748 18.3336 15.8798 18.3499C16.0016 18.7151 16.1221 19.1243 16.2074 19.5423C16.2928 19.9589 16.3442 20.3857 16.3317 20.781V20.786C16.3129 21.4023 16.1083 21.9834 15.581 22.3386C15.089 22.6699 14.5028 22.8193 13.9141 22.7026C14.1061 22.9247 14.2379 23.2134 14.3208 23.5108C14.3333 23.5585 15.2333 23.295 15.3149 23.2648C15.6287 23.1481 15.9275 22.9837 16.1823 22.7666C16.7472 22.2821 16.9731 21.5278 16.9957 20.8061C17.0108 20.338 16.9518 19.8648 16.8589 19.4105L16.8564 19.4092Z" fill="#3D2014"/>
<defs>
<linearGradient id="paint0_linear_1524_40518" x1="10.7852" y1="2.77257" x2="14.3388" y2="2.77257" gradientUnits="userSpaceOnUse">
<stop stop-color="#554536"/>
<stop offset="0.53" stop-color="#BEA998"/>
<stop offset="1" stop-color="#574231"/>
</linearGradient>
<linearGradient id="paint1_linear_1524_40518" x1="12.1289" y1="0.831972" x2="13.0239" y2="0.831972" gradientUnits="userSpaceOnUse">
<stop stop-color="#554536"/>
<stop offset="0.53" stop-color="#BEA998"/>
<stop offset="1" stop-color="#574231"/>
</linearGradient>
<linearGradient id="paint2_linear_1524_40518" x1="-60.3436" y1="22.3008" x2="14.1309" y2="22.3008" gradientUnits="userSpaceOnUse">
<stop stop-color="#554536"/>
<stop offset="0.53" stop-color="#BEA998"/>
<stop offset="1" stop-color="#574231"/>
</linearGradient>
<linearGradient id="paint3_linear_1524_40518" x1="-60.3432" y1="26.2091" x2="14.1314" y2="26.2091" gradientUnits="userSpaceOnUse">
<stop stop-color="#554536"/>
<stop offset="0.53" stop-color="#BEA998"/>
<stop offset="1" stop-color="#574231"/>
</linearGradient>
<linearGradient id="paint4_linear_1524_40518" x1="-60.3415" y1="25.2814" x2="-60.2159" y2="25.2814" gradientUnits="userSpaceOnUse">
<stop stop-color="#554536"/>
<stop offset="0.53" stop-color="#BEA998"/>
<stop offset="1" stop-color="#574231"/>
</linearGradient>
<linearGradient id="paint5_linear_1524_40518" x1="10.8271" y1="23.2646" x2="14.1297" y2="23.2646" gradientUnits="userSpaceOnUse">
<stop stop-color="#554536"/>
<stop offset="0.53" stop-color="#BEA998"/>
<stop offset="1" stop-color="#574231"/>
</linearGradient>
<linearGradient id="paint6_linear_1524_40518" x1="-60.3447" y1="24.3567" x2="-60.2192" y2="24.3567" gradientUnits="userSpaceOnUse">
<stop stop-color="#554536"/>
<stop offset="0.53" stop-color="#BEA998"/>
<stop offset="1" stop-color="#574231"/>
</linearGradient>
<linearGradient id="paint7_linear_1524_40518" x1="10.8284" y1="11.1065" x2="14.131" y2="11.1065" gradientUnits="userSpaceOnUse">
<stop stop-color="#554536"/>
<stop offset="0.53" stop-color="#BEA998"/>
<stop offset="1" stop-color="#574231"/>
</linearGradient>
<linearGradient id="paint8_linear_1524_40518" x1="10.8283" y1="12.2298" x2="14.1309" y2="12.2298" gradientUnits="userSpaceOnUse">
<stop stop-color="#554536"/>
<stop offset="0.53" stop-color="#BEA998"/>
<stop offset="1" stop-color="#574231"/>
</linearGradient>
<linearGradient id="paint9_linear_1524_40518" x1="10.8279" y1="17.3081" x2="14.1305" y2="17.3081" gradientUnits="userSpaceOnUse">
<stop stop-color="#554536"/>
<stop offset="0.53" stop-color="#BEA998"/>
<stop offset="1" stop-color="#574231"/>
</linearGradient>
<linearGradient id="paint10_linear_1524_40518" x1="-60.3436" y1="9.79366" x2="14.1311" y2="9.79366" gradientUnits="userSpaceOnUse">
<stop stop-color="#554536"/>
<stop offset="0.53" stop-color="#BEA998"/>
<stop offset="1" stop-color="#574231"/>
</linearGradient>
</defs>
</svg>
