<svg width="39" height="39" viewBox="0 0 39 39" fill="none" xmlns="http://www.w3.org/2000/svg">
<path d="M28.8507 22.7505C30.8701 22.7505 32.507 24.3875 32.507 26.4068V27.8776C32.507 29.6548 31.7312 31.3434 30.3828 32.5012C27.8388 34.685 24.1983 35.7525 19.5021 35.7525C14.8066 35.7525 11.1685 34.6855 8.62888 32.502C7.28237 31.3443 6.50781 29.6569 6.50781 27.8811V26.4068C6.50781 24.3875 8.14477 22.7505 10.1641 22.7505H28.8507ZM19.3372 3.26258L19.5026 3.25146C20.1196 3.25146 20.6295 3.70996 20.7103 4.30484L20.7213 4.47021L20.72 5.68734L26.4083 5.68815C28.4276 5.68815 30.0646 7.32511 30.0646 9.3444V16.6644C30.0646 18.6836 28.4276 20.3207 26.4083 20.3207H12.5958C10.5765 20.3207 8.93956 18.6836 8.93956 16.6644V9.3444C8.93956 7.32511 10.5765 5.68815 12.5958 5.68815L18.2825 5.68734L18.2838 4.47021C18.2838 3.8532 18.7424 3.34329 19.3372 3.26258ZM15.8447 10.5632C14.7235 10.5632 13.8146 11.4721 13.8146 12.5932C13.8146 13.7144 14.7235 14.6233 15.8447 14.6233C16.9658 14.6233 17.8748 13.7144 17.8748 12.5932C17.8748 11.4721 16.9658 10.5632 15.8447 10.5632ZM23.1453 10.5632C22.0241 10.5632 21.1152 11.4721 21.1152 12.5932C21.1152 13.7144 22.0241 14.6233 23.1453 14.6233C24.2666 14.6233 25.1755 13.7144 25.1755 12.5932C25.1755 11.4721 24.2666 10.5632 23.1453 10.5632Z" fill="white"/>
</svg>
