<svg width="86" height="86" viewBox="0 0 86 86" fill="none" xmlns="http://www.w3.org/2000/svg">
<circle cx="43" cy="43" r="43" fill="#5D4135"/>
<path fill-rule="evenodd" clip-rule="evenodd" d="M43.8571 22.1191C43.3176 21.8493 42.6824 21.8493 42.1429 22.1191L26.8095 29.7858C26.1602 30.1104 25.75 30.7741 25.75 31.5001V43.0001C25.75 48.1026 27.3994 52.3751 30.3556 55.8726C33.2811 59.3335 37.4124 61.9517 42.2743 63.9406C42.7393 64.1309 43.2607 64.1309 43.7257 63.9406C48.5877 61.9517 52.7188 59.3335 55.6444 55.8726C58.6007 52.3751 60.25 48.1026 60.25 43.0001V31.5001C60.25 30.7741 59.8398 30.1104 59.1905 29.7858L43.8571 22.1191ZM29.5833 43.0001V32.6846L43 25.9763L56.4167 32.6846V43.0001C56.4167 47.2024 55.0846 50.5968 52.7167 53.398C50.4484 56.0817 47.1632 58.2957 43 60.0883C38.8367 58.2957 35.5517 56.0817 33.2832 53.398C30.9155 50.5968 29.5833 47.2024 29.5833 43.0001ZM52.118 38.5021C52.8093 37.7006 52.7202 36.4903 51.9186 35.7989C51.1173 35.1074 49.9069 35.1966 49.2154 35.9981L40.6285 45.951L36.6754 42.0739C35.9197 41.3328 34.7062 41.3445 33.965 42.1002C33.2238 42.8559 33.2355 44.0694 33.9912 44.8106L39.403 50.1184C39.7811 50.4893 40.2958 50.6871 40.8248 50.665C41.354 50.643 41.8504 50.403 42.1963 50.0021L52.118 38.5021Z" fill="#D7C4B6"/>
</svg>
