<svg width="57" height="57" viewBox="0 0 57 57" fill="none" xmlns="http://www.w3.org/2000/svg">
<g clip-path="url(#clip0_1524_24601)">
<path d="M28.5 0C22.8632 0 17.3531 1.6715 12.6663 4.80312C7.97946 7.93474 4.32654 12.3858 2.16945 17.5935C0.0123487 22.8012 -0.552046 28.5316 0.547632 34.0601C1.64731 39.5885 4.36167 44.6667 8.34747 48.6525C12.3333 52.6383 17.4115 55.3527 22.9399 56.4524C28.4684 57.5521 34.1988 56.9877 39.4065 54.8306C44.6142 52.6735 49.0653 49.0206 52.1969 44.3338C55.3285 39.647 57 34.1368 57 28.5C56.9918 20.9438 53.9865 13.6995 48.6435 8.35648C43.3005 3.01347 36.0562 0.00817257 28.5 0ZM28.5 52.25C23.8027 52.25 19.2109 50.8571 15.3052 48.2474C11.3996 45.6377 8.35546 41.9285 6.55787 37.5887C4.76029 33.249 4.28996 28.4737 5.20636 23.8666C6.12276 19.2596 8.38473 15.0277 11.7062 11.7062C15.0277 8.38472 19.2596 6.12275 23.8666 5.20635C28.4737 4.28995 33.249 4.76028 37.5887 6.55786C41.9285 8.35544 45.6377 11.3995 48.2474 15.3052C50.8571 19.2109 52.25 23.8027 52.25 28.5C52.2431 34.7968 49.7387 40.8337 45.2862 45.2861C40.8337 49.7386 34.7968 52.2431 28.5 52.25Z" fill="#15A915"/>
<circle cx="28.5" cy="28.5" r="25.5" fill="#15A915" fill-opacity="0.11"/>
<path d="M38.696 19.696L23.7501 34.6419L18.3042 29.196C17.8563 28.7634 17.2564 28.524 16.6337 28.5294C16.0109 28.5348 15.4153 28.7846 14.9749 29.2249C14.5346 29.6653 14.2848 30.2609 14.2794 30.8837C14.274 31.5064 14.5134 32.1063 14.946 32.5542L22.071 39.6792C22.5164 40.1245 23.1203 40.3746 23.7501 40.3746C24.3799 40.3746 24.9839 40.1245 25.4292 39.6792L42.0542 23.0542C42.4869 22.6063 42.7263 22.0064 42.7208 21.3837C42.7154 20.7609 42.4657 20.1653 42.0253 19.7249C41.585 19.2846 40.9893 19.0348 40.3666 19.0294C39.7438 19.024 39.1439 19.2634 38.696 19.696Z" fill="#15A915"/>
</g>
<defs>
<clipPath id="clip0_1524_24601">
<rect width="57" height="57" fill="white"/>
</clipPath>
</defs>
</svg>
