<svg width="43" height="43" viewBox="0 0 43 43" fill="none" xmlns="http://www.w3.org/2000/svg">
<path d="M21.4994 35.2784V7.72144C19.8697 7.72144 18.24 7.9015 16.6426 8.26166C12.2193 9.25904 8.76558 12.5791 7.72801 16.8312C6.97868 19.9019 6.97868 23.0977 7.72801 26.1686C8.76558 30.4206 12.2193 33.7408 16.6426 34.738C18.24 35.0983 19.8697 35.2784 21.4994 35.2784Z" fill="#5D4135" fill-opacity="0.15"/>
<path d="M21.4994 5.375V37.625M26.356 34.7381C30.7795 33.7408 34.2331 30.4207 35.2706 26.1687C36.0201 23.0978 36.0201 19.902 35.2706 16.8313C34.2331 12.5792 30.7795 9.25914 26.356 8.26175M21.4994 7.72153C19.8697 7.72153 18.24 7.90159 16.6426 8.26175C12.2193 9.25914 8.76558 12.5792 7.72801 16.8313C6.97868 19.902 6.97868 23.0978 7.72801 26.1687C8.76558 30.4207 12.2193 33.7408 16.6426 34.7381C18.24 35.0984 19.8697 35.2785 21.4994 35.2785" stroke="#5D4135" strokeWidth="2" strokeLinecap="round"/>
</svg>
