<svg width="34" height="34" viewBox="0 0 34 34" fill="none" xmlns="http://www.w3.org/2000/svg">
<path d="M18.3906 29.0606C18.3956 29.06 18.4003 29.059 18.4052 29.0583L18.3989 29.052L18.3906 29.0606Z" fill="#5D4135"/>
<path d="M29.1423 21.8574V3.64282H9.71383V7.28554H4.85621V21.8571H2.42773V30.3571H31.5705V21.8571H29.1423V21.8574ZM26.7138 6.07163V21.8574H21.1825C20.3412 23.3031 18.7922 24.2859 16.9989 24.2859C15.2056 24.2859 13.6567 23.3031 12.8153 21.8574H12.142V6.07163H26.7138ZM7.28502 9.71435H9.7135V21.8571H7.28502V9.71435ZM29.142 27.9286H4.85621V24.2859H11.5954C12.9634 25.8099 14.9284 26.7143 16.9993 26.7143C19.0698 26.7143 21.0351 25.8099 22.4031 24.2859H29.1423V27.9286H29.142Z" fill="#5D4135"/>
<path d="M13.3574 9.71436H25.5001V12.1428H13.3574V9.71436ZM13.3574 14.5716H25.5001V17.0001H13.3574V14.5716Z" fill="#5D4135"/>
</svg>
