        <svg
              xmlns="http://www.w3.org/2000/svg"
              width="100"
              height="100"
              viewBox="0 0 73 50"
              fill="none"
            >
              <path
                d="M66.6654 17.4959L67.5704 12.6694L68.777 17.4959L73.0001 18.7025L68.777 19.9091L67.872 24.1322L66.3638 19.9091L62.1406 18.7025L66.6654 17.4959Z"
                fill="#D8AF9F"
              />
              <path
                d="M54.3985 2.79426L54.9013 0L55.5716 2.79426L57.9178 3.49282L55.5716 4.19139L55.0689 6.63636L54.231 4.19139L51.8848 3.49282L54.3985 2.79426Z"
                fill="#D8AF9F"
              />
              <path
                d="M6.73643 33.5628L7.23919 30.7686L7.90952 33.5628L10.2557 34.2614L7.90952 34.9599L7.40677 37.4049L6.56885 34.9599L4.22266 34.2614L6.73643 33.5628Z"
                fill="#D8AF9F"
              />
              <path
                d="M1.50826 17.4642L1.80992 15.686L2.21212 17.4642L3.61983 17.9087L2.21212 18.3533L1.91047 19.9092L1.40771 18.3533L0 17.9087L1.50826 17.4642Z"
                fill="#D8AF9F"
              />
              <path
                d="M44.3427 24.735L53.9956 12.0655L35.8965 12.0654L44.3427 24.735Z"
                fill="#FFDEDB"
              />
              <path
                d="M27.4503 24.7349L35.8966 12.0654H19.3057L27.4503 24.7349Z"
                fill="#FFDEDB"
              />
              <path
                d="M61.537 24.4332L53.9957 12.0654L44.3428 24.4332H61.537Z"
                fill="#E8AEA9"
              />
              <path
                d="M9.0498 24.7349L19.5105 12.0654L27.7523 24.7349H9.0498Z"
                fill="#BE7C77"
              />
              <path
                d="M27.1494 24.7349L35.8973 12.0654L44.6453 24.7349H27.1494Z"
                fill="#743B36"
              />
              <path
                d="M35.2936 49.4704L9.0498 24.7349H27.149L35.2936 49.4704Z"
                fill="#E8AEA9"
              />
              <path
                d="M35.2939 49.4703L61.5377 24.4331H44.3435L35.2939 49.4703Z"
                fill="#743B36"
              />
              <path
                d="M44.6453 24.7349H27.1494L35.294 49.4704L44.6453 24.7349Z"
                fill="#BE7C77"
              />
            </svg>