<svg width="80" height="80" viewBox="0 0 80 80" fill="none" xmlns="http://www.w3.org/2000/svg">
<rect width="80" height="80" rx="40" fill="#401D13"/>
<path d="M48.2539 30.2664C48.2539 34.79 44.5237 38.4693 39.9374 38.4693C35.3522 38.4693 31.6219 34.79 31.6219 30.2664C31.6219 25.7439 35.3522 22.0635 39.9374 22.0635C44.5237 22.0635 48.2539 25.7439 48.2539 30.2664ZM48.668 41.0914C48.6831 41.1097 48.6993 41.1258 48.7167 41.1418C48.6959 41.1155 48.675 41.0926 48.6506 41.0697C48.6564 41.0766 48.6622 41.0846 48.668 41.0914ZM52.9284 33.8301C52.9075 33.8301 52.8866 33.8301 52.8658 33.829C52.2127 36.0759 50.9287 38.1398 49.1865 39.7392C49.4603 39.9131 49.705 40.1396 49.9068 40.4153C49.9869 40.5251 50.0588 40.6407 50.1191 40.7585C52.1513 38.8983 53.622 36.4694 54.3087 33.8301H52.9284ZM53.6023 29.3168C53.6162 29.3168 53.6301 29.3168 53.6452 29.3157H53.5814C53.5884 29.3168 53.5953 29.3168 53.6023 29.3168ZM39.9374 16C32.8329 16 26.806 21.0922 25.6693 27.9428H27.082C28.2002 21.8644 33.595 17.3729 39.9374 17.3729C46.2832 17.3729 51.6792 21.8667 52.795 27.9485C52.8391 27.9439 52.8832 27.9428 52.9284 27.9428H54.2066C53.0699 21.0922 47.043 16 39.9374 16ZM27.0716 29.3157H26.2945C26.2736 29.318 26.2515 29.3168 26.2307 29.3157H25.5196C25.2331 29.3157 25 29.5456 25 29.8282V31.9458C25 32.2273 25.2331 32.4572 25.5196 32.4572H27.0716C27.3581 32.4572 27.5912 32.2273 27.5912 31.9458V29.8282C27.5912 29.5456 27.3581 29.3157 27.0716 29.3157ZM54.4804 29.3157H53.6452C53.6301 29.3168 53.6162 29.3168 53.6023 29.3168C53.5953 29.3168 53.5884 29.3168 53.5814 29.3157H52.9284C52.6419 29.3157 52.4088 29.5456 52.4088 29.8282V31.9458C52.4088 32.2273 52.6419 32.4572 52.9284 32.4572H54.4804C54.7669 32.4572 55 32.2273 55 31.9458V29.8282C55 29.5456 54.7669 29.3157 54.4804 29.3157ZM48.7771 41.2173C48.7597 41.1933 48.7411 41.1692 48.7225 41.1475C48.7214 41.1463 48.7214 41.1463 48.7202 41.1452L48.7179 41.1429L48.7167 41.1418C48.6993 41.1258 48.6831 41.1097 48.668 41.0914C48.6622 41.0846 48.6564 41.0766 48.6506 41.0697C48.6495 41.0685 48.6495 41.0685 48.6483 41.0674C48.4001 40.818 48.0637 40.6864 47.7239 40.6864C47.4617 40.6864 47.1973 40.7642 46.9688 40.9267L46.4862 41.2688C45.9063 41.6806 45.774 42.4803 46.1916 43.0523C46.3934 43.3292 46.6927 43.5122 47.0349 43.5672C47.3759 43.6221 47.7192 43.542 47.9999 43.3429L48.4824 43.0009C48.7631 42.8018 48.9487 42.5066 49.0044 42.1691C49.0601 41.8328 48.9789 41.4941 48.7771 41.2173ZM35.3313 43.2583C34.4162 43.2583 33.5323 43.3933 32.6995 43.6438L35.6306 47.3311L38.3541 43.2583H35.3313ZM47.2495 44.9572C47.1033 44.9572 46.9572 44.9458 46.8099 44.9217C46.1023 44.8073 45.4806 44.4286 45.0619 43.8543C44.925 43.6656 44.816 43.4653 44.7359 43.2583H42.7374L45.4597 47.3311L47.3492 44.9549C47.3156 44.956 47.2831 44.9572 47.2495 44.9572ZM41.0694 43.2583H40.022L38.2207 45.9514L39.4235 48.0061H41.668L42.8708 45.9525L41.0694 43.2583ZM41.5311 49.379H39.5592L37.5735 56.9263L40.5452 59.2911L43.5169 56.9263L41.5311 49.379ZM49.7386 44.1678C49.7282 44.1861 49.7154 44.2033 49.7015 44.2204L45.9585 48.9294C45.8262 49.0952 45.6244 49.1913 45.411 49.1913H45.3832C45.1593 49.1822 44.954 49.0678 44.8299 48.8836L43.7268 47.2339L42.8151 48.7921L44.9772 57.0098C45.0456 57.2707 44.9528 57.5475 44.7406 57.7168L40.9824 60.7074C40.9801 60.7097 40.9766 60.712 40.9743 60.7131C40.95 60.7326 40.9244 60.7497 40.8978 60.7646C40.8839 60.7726 40.8699 60.7806 40.8549 60.7875C40.8085 60.8104 40.7597 60.8275 40.711 60.839C40.7029 60.8413 40.6936 60.8435 40.6843 60.8458C40.6635 60.8504 40.6414 60.8538 40.6206 60.855C40.595 60.8584 40.5707 60.8596 40.5463 60.8596H40.5452C40.5208 60.8596 40.4964 60.8584 40.4709 60.855C40.45 60.8538 40.428 60.8504 40.4071 60.8458C40.3979 60.8435 40.3886 60.8413 40.3805 60.839C40.3306 60.8275 40.283 60.8104 40.2366 60.7875C40.2215 60.7806 40.2076 60.7726 40.1937 60.7646C40.1635 60.7474 40.1357 60.728 40.109 60.7074L36.3509 57.7168C36.1375 57.5475 36.0447 57.2707 36.1143 57.0098L38.2764 48.7921L37.3635 47.2327L36.2604 48.8836C36.1375 49.0678 35.9322 49.1822 35.7083 49.1913H35.6793C35.4671 49.1913 35.2641 49.0952 35.1318 48.9294L31.39 44.2204C31.3772 44.2033 31.3644 44.1861 31.3528 44.1689C28.3591 45.6219 26.2933 48.6616 26.2933 52.167V61.8103C26.2933 63.0173 27.292 64 28.5203 64H32.0233V59.6846C32.0233 59.3048 32.3341 58.9982 32.7192 58.9982C33.1032 58.9982 33.4152 59.3048 33.4152 59.6846V64H47.6763V59.6846C47.6763 59.3048 47.9883 58.9982 48.3723 58.9982C48.7562 58.9982 49.0682 59.3048 49.0682 59.6846V64H52.5711C53.7983 64 54.797 63.0173 54.797 61.8103V52.167C54.797 48.7589 52.8228 45.6574 49.7386 44.1678Z" fill="white"/>
</svg>
