<svg width="68" height="67" viewBox="0 0 68 67" fill="none" xmlns="http://www.w3.org/2000/svg">
<g filter="url(#filter0_d_303_28860)">
<circle cx="33.9942" cy="29.0195" r="19.0196" fill="#3D2014"/>
</g>
<g clip-path="url(#clip0_303_28860)">
<path d="M34.3123 22.0458C32.3323 22.0458 32.084 22.0542 31.3063 22.0897C30.5303 22.1251 30.0003 22.2484 29.5365 22.4286C29.0571 22.6149 28.6505 22.8642 28.2452 23.2696C27.8399 23.6749 27.5906 24.0815 27.4042 24.5609C27.224 25.0247 27.1008 25.5547 27.0653 26.3307C27.0298 27.1083 27.0215 27.3566 27.0215 29.3367C27.0215 31.3168 27.0298 31.565 27.0653 32.3427C27.1008 33.1187 27.224 33.6487 27.4042 34.1125C27.5906 34.5919 27.8399 34.9985 28.2452 35.4038C28.6505 35.8092 29.0571 36.0585 29.5365 36.2448C30.0003 36.425 30.5303 36.5483 31.3063 36.5837C32.084 36.6191 32.3323 36.6275 34.3123 36.6275C36.2924 36.6275 36.5407 36.6191 37.3183 36.5837C38.0944 36.5483 38.6244 36.425 39.0881 36.2448C39.5676 36.0585 39.9741 35.8092 40.3795 35.4038C40.7848 34.9985 41.0341 34.5919 41.2204 34.1125C41.4007 33.6487 41.5239 33.1187 41.5593 32.3427C41.5948 31.565 41.6032 31.3168 41.6032 29.3367C41.6032 27.3566 41.5948 27.1083 41.5593 26.3307C41.5239 25.5547 41.4007 25.0247 41.2204 24.5609C41.0341 24.0815 40.7848 23.6749 40.3795 23.2696C39.9741 22.8642 39.5676 22.6149 39.0881 22.4286C38.6244 22.2484 38.0944 22.1251 37.3183 22.0897C36.5407 22.0542 36.2924 22.0458 34.3123 22.0458ZM34.3123 23.3595C36.2591 23.3595 36.4897 23.3669 37.2585 23.402C37.9693 23.4345 38.3554 23.5532 38.6123 23.6531C38.9526 23.7853 39.1955 23.9433 39.4506 24.1984C39.7057 24.4536 39.8637 24.6965 39.996 25.0368C40.0958 25.2937 40.2146 25.6797 40.247 26.3906C40.2821 27.1593 40.2895 27.39 40.2895 29.3367C40.2895 31.2834 40.2821 31.514 40.247 32.2828C40.2146 32.9937 40.0958 33.3797 39.996 33.6366C39.8637 33.9769 39.7057 34.2198 39.4506 34.4749C39.1955 34.7301 38.9526 34.8881 38.6123 35.0203C38.3554 35.1202 37.9693 35.2389 37.2585 35.2714C36.4898 35.3064 36.2592 35.3139 34.3123 35.3139C32.3655 35.3139 32.1349 35.3064 31.3662 35.2714C30.6554 35.2389 30.2693 35.1202 30.0124 35.0203C29.6721 34.8881 29.4292 34.7301 29.1741 34.4749C28.9189 34.2198 28.7609 33.9769 28.6287 33.6366C28.5289 33.3797 28.4101 32.9937 28.3776 32.2828C28.3426 31.514 28.3351 31.2834 28.3351 29.3367C28.3351 27.39 28.3426 27.1593 28.3776 26.3906C28.4101 25.6797 28.5289 25.2937 28.6287 25.0368C28.7609 24.6965 28.9189 24.4536 29.1741 24.1984C29.4292 23.9433 29.6721 23.7853 30.0124 23.6531C30.2693 23.5532 30.6554 23.4345 31.3662 23.402C32.135 23.3669 32.3656 23.3595 34.3123 23.3595Z" fill="#F6F9FF"/>
<path d="M34.3123 31.7669C32.9701 31.7669 31.882 30.6789 31.882 29.3367C31.882 27.9944 32.9701 26.9064 34.3123 26.9064C35.6545 26.9064 36.7426 27.9944 36.7426 29.3367C36.7426 30.6789 35.6545 31.7669 34.3123 31.7669ZM34.3123 25.5927C32.2446 25.5927 30.5684 27.2689 30.5684 29.3367C30.5684 31.4044 32.2446 33.0806 34.3123 33.0806C36.38 33.0806 38.0563 31.4044 38.0563 29.3367C38.0563 27.2689 36.38 25.5927 34.3123 25.5927Z" fill="#F6F9FF"/>
<path d="M39.0799 25.4448C39.0799 25.928 38.6882 26.3197 38.205 26.3197C37.7218 26.3197 37.3301 25.928 37.3301 25.4448C37.3301 24.9616 37.7218 24.5699 38.205 24.5699C38.6882 24.5699 39.0799 24.9616 39.0799 25.4448Z" fill="#F6F9FF"/>
</g>
<defs>
<filter id="filter0_d_303_28860" x="0.974609" y="-0.00012207" width="66.0391" height="66.0392" filterUnits="userSpaceOnUse" color-interpolation-filters="sRGB">
<feFlood flood-opacity="0" result="BackgroundImageFix"/>
<feColorMatrix in="SourceAlpha" type="matrix" values="0 0 0 0 0 0 0 0 0 0 0 0 0 0 0 0 0 0 127 0" result="hardAlpha"/>
<feOffset dy="4"/>
<feGaussianBlur stdDeviation="7"/>
<feComposite in2="hardAlpha" operator="out"/>
<feColorMatrix type="matrix" values="0 0 0 0 0.764706 0 0 0 0 0.14902 0 0 0 0 0.180392 0 0 0 0.13 0"/>
<feBlend mode="normal" in2="BackgroundImageFix" result="effect1_dropShadow_303_28860"/>
<feBlend mode="normal" in="SourceGraphic" in2="effect1_dropShadow_303_28860" result="shape"/>
</filter>
<clipPath id="clip0_303_28860">
<rect width="15.2157" height="15.2157" fill="white" transform="translate(26.3867 21.4118)"/>
</clipPath>
</defs>
</svg>
