<svg width="86" height="86" viewBox="0 0 86 86" fill="none" xmlns="http://www.w3.org/2000/svg">
<circle cx="43" cy="43" r="43" fill="#FDF9D2"/>
<g clip-path="url(#clip0_29_1724)">
<mask id="mask0_29_1724" style="mask-type:luminance" maskUnits="userSpaceOnUse" x="17" y="17" width="53" height="53">
<path d="M70 17H17V70H70V17Z" fill="white"/>
</mask>
<g mask="url(#mask0_29_1724)">
<path d="M63.2091 22.7125C62.0705 22.7078 60.9554 23.0362 60.0011 23.6573C59.0468 24.2785 58.295 25.1652 57.8384 26.2082C57.3817 27.2513 57.2401 28.4051 57.431 29.5276C57.6219 30.6501 58.137 31.6923 58.9128 32.5257L51.6965 44.5898C51.2228 44.4612 50.7348 44.3928 50.244 44.3861C49.2693 44.3929 48.3122 44.6458 47.4615 45.1215L41.8766 39.5366C42.3523 38.6865 42.6052 37.7299 42.612 36.7558C42.6174 35.8 42.3889 34.8574 41.9464 34.0101C41.5039 33.1629 40.8609 32.4367 40.0734 31.895C39.2859 31.3532 38.3779 31.0124 37.4284 30.9021C36.479 30.7918 35.517 30.9154 34.6263 31.2621C33.7356 31.6089 32.9432 32.1684 32.3183 32.8916C31.6934 33.6149 31.2549 34.48 31.041 35.4116C30.8271 36.3432 30.8444 37.313 31.0913 38.2364C31.3382 39.1597 31.8072 40.0087 32.4575 40.7093L25.2396 52.7734C24.7661 52.6438 24.2779 52.5754 23.7871 52.5697C22.4281 52.5583 21.1068 53.0156 20.0457 53.8646C18.9846 54.7136 18.2485 55.9024 17.9615 57.2307C17.6744 58.559 17.8539 59.9457 18.4698 61.1571C19.0857 62.3685 20.1002 63.3306 21.3426 63.8813C22.5849 64.4321 23.9791 64.5379 25.2904 64.1808C26.6016 63.8238 27.7496 63.0257 28.5412 61.9211C29.3327 60.8164 29.7194 59.4727 29.636 58.1163C29.5526 56.7599 29.0043 55.4737 28.0834 54.4744L35.2996 42.4102C35.7733 42.5389 36.2614 42.6073 36.7522 42.6139C37.7268 42.6072 38.684 42.3542 39.5347 41.8786L45.1195 47.4634C44.6439 48.3136 44.3909 49.2701 44.3842 50.2443C44.3785 51.2002 44.6068 52.1429 45.0491 52.9904C45.4914 53.8378 46.1343 54.5641 46.9217 55.1061C47.7091 55.648 48.6172 55.9891 49.5667 56.0996C50.5162 56.21 51.4783 56.0865 52.3691 55.7398C53.2599 55.3932 54.0524 54.8338 54.6774 54.1106C55.3025 53.3874 55.7411 52.5222 55.955 51.5905C56.169 50.6589 56.1518 49.6891 55.9049 48.7656C55.658 47.8421 55.1889 46.9931 54.5386 46.2925L61.7566 34.2267C62.2301 34.3562 62.7182 34.4247 63.2091 34.4304C64.763 34.4304 66.2533 33.8131 67.352 32.7143C68.4508 31.6156 69.0681 30.1253 69.0681 28.5714C69.0681 27.0175 68.4508 25.5273 67.352 24.4285C66.2533 23.3297 64.763 22.7125 63.2091 22.7125ZM23.7904 60.9718C23.287 60.9715 22.7949 60.8219 22.3765 60.542C21.9581 60.2621 21.6321 59.8644 21.4397 59.3992C21.2472 58.934 21.1971 58.4222 21.2955 57.9285C21.3939 57.4348 21.6365 56.9814 21.9925 56.6255C22.3486 56.2697 22.8022 56.0274 23.296 55.9293C23.7898 55.8312 24.3015 55.8817 24.7666 56.0745C25.2316 56.2672 25.6291 56.5935 25.9088 57.0121C26.1884 57.4307 26.3377 57.9227 26.3377 58.4262C26.3372 59.1018 26.0688 59.7496 25.5912 60.2275C25.1136 60.7053 24.466 60.9742 23.7904 60.9751V60.9718ZM34.2098 36.7525C34.2098 36.249 34.3591 35.7568 34.6388 35.3382C34.9186 34.9195 35.3161 34.5933 35.7813 34.4006C36.2465 34.2079 36.7583 34.1575 37.2521 34.2557C37.7459 34.3539 38.1995 34.5964 38.5555 34.9524C38.9115 35.3084 39.154 35.7621 39.2522 36.2559C39.3505 36.7497 39.3 37.2615 39.1074 37.7267C38.9147 38.1918 38.5884 38.5894 38.1698 38.8691C37.7511 39.1488 37.259 39.2982 36.7555 39.2982C36.081 39.2973 35.4344 39.0293 34.957 38.5528C34.4796 38.0764 34.2104 37.4303 34.2082 36.7558L34.2098 36.7525ZM50.2473 52.7883C49.5719 52.7883 48.9242 52.52 48.4466 52.0424C47.9691 51.5649 47.7008 50.9172 47.7008 50.2418C47.7008 49.5664 47.9691 48.9187 48.4466 48.4412C48.9242 47.9636 49.5719 47.6953 50.2473 47.6953C50.7012 47.6978 51.1459 47.8231 51.5342 48.0581L51.5474 48.0696L51.5872 48.0862C52.0578 48.377 52.4207 48.8134 52.6206 49.3292C52.8206 49.8449 52.8468 50.4119 52.6952 50.9439C52.5436 51.4759 52.2225 51.9439 51.7807 52.2768C51.3389 52.6097 50.8005 52.7893 50.2473 52.7883ZM63.2124 31.1146C62.758 31.1124 62.3127 30.9871 61.9238 30.7519L61.9123 30.7419L61.8891 30.7336C61.3693 30.411 60.9837 29.9113 60.8036 29.3266C60.6235 28.7419 60.661 28.1118 60.9092 27.5526C61.1573 26.9934 61.5994 26.5429 62.1538 26.2842C62.7083 26.0255 63.3376 25.9761 63.9255 26.1451C64.5135 26.3142 65.0205 26.6903 65.3529 27.2039C65.6852 27.7175 65.8205 28.3341 65.7338 28.9397C65.6471 29.5453 65.3442 30.0991 64.8811 30.4989C64.418 30.8986 63.8259 31.1173 63.2141 31.1146H63.2124Z" fill="#5D4135"/>
</g>
</g>
<defs>
<clipPath id="clip0_29_1724">
<rect width="53" height="53" fill="white" transform="translate(17 17)"/>
</clipPath>
</defs>
</svg>
