<svg width="67" height="67" viewBox="0 0 67 67" fill="none" xmlns="http://www.w3.org/2000/svg">
<g filter="url(#filter0_d_303_28867)">
<circle cx="33.9805" cy="29.0195" r="19.0196" fill="#3D2014"/>
</g>
<path d="M30.3449 35.5968L27.5272 35.5822C27.5246 35.3621 27.5895 34.5266 27.5705 34.2537C27.5489 33.9494 27.5405 32.7535 27.5366 32.456C27.533 32.159 27.5563 30.8339 27.5634 30.464C27.5729 29.9696 27.5541 29.4751 27.5541 28.9806C27.5541 28.2632 27.5541 27.4351 27.5541 26.7839C27.5541 26.7839 29.5445 26.5284 30.2865 26.7839L30.2949 27.2346C30.2938 27.4844 30.291 28.4794 30.3007 28.7226C30.3233 29.2824 30.3697 29.9351 30.3475 30.4998C30.3255 31.0637 30.3386 31.8423 30.3533 32.3948C30.3854 33.6107 30.3634 34.4505 30.3449 35.5968ZM29.6396 22.4878C28.769 22.0964 27.5851 22.5943 27.3258 23.5525C27.1823 24.0821 27.3642 24.7492 27.7832 25.0521C29.8748 26.5629 31.7585 23.4404 29.6396 22.4878ZM40.6853 31.362C40.6844 30.9146 40.5922 29.4671 40.5678 29.1916C40.5486 28.9748 40.5487 28.9748 40.4799 28.5219C40.437 28.2397 40.237 27.9899 40.0455 27.7821C39.4998 27.1893 38.9061 26.9242 38.1672 26.6666C37.5634 26.4564 37.0814 26.6177 36.4848 26.6968C35.8015 26.7869 34.7513 27.9884 34.7513 27.9884C34.7099 27.7099 34.7513 27.1219 34.7108 26.7819C34.276 26.7502 33.9089 26.7744 33.4437 26.7548C33.0417 26.7375 32.5785 26.7627 32.0484 26.7548C32.0484 26.7548 32.0286 28.0938 32.0191 28.4913C32.0094 28.8909 32.0232 29.2914 32.0191 29.6913C32.0118 30.4388 32.0622 31.2452 32.0926 31.9981C32.142 33.2277 32.0749 34.5214 32.078 35.685H32.3424C33.1844 35.685 33.9382 35.685 34.7806 35.685C34.7806 35.685 34.7881 34.5637 34.7659 34.2455C34.7336 33.7767 34.7364 30.7938 34.7806 30.2356C34.8248 29.6775 35.4163 28.9554 36.3669 28.9577C36.7195 28.9586 37.1948 29.0155 37.4617 29.2735C37.6214 29.4279 37.8367 29.9644 37.8949 30.5259C37.9534 31.0874 37.9238 33.9798 37.9238 35.6557L40.656 35.685C40.4898 35.3261 40.686 31.8727 40.6853 31.362Z" fill="#F6F9FF"/>
<defs>
<filter id="filter0_d_303_28867" x="0.960938" y="-0.00012207" width="66.0391" height="66.0392" filterUnits="userSpaceOnUse" color-interpolation-filters="sRGB">
<feFlood flood-opacity="0" result="BackgroundImageFix"/>
<feColorMatrix in="SourceAlpha" type="matrix" values="0 0 0 0 0 0 0 0 0 0 0 0 0 0 0 0 0 0 127 0" result="hardAlpha"/>
<feOffset dy="4"/>
<feGaussianBlur stdDeviation="7"/>
<feComposite in2="hardAlpha" operator="out"/>
<feColorMatrix type="matrix" values="0 0 0 0 0.764706 0 0 0 0 0.14902 0 0 0 0 0.180392 0 0 0 0.13 0"/>
<feBlend mode="normal" in2="BackgroundImageFix" result="effect1_dropShadow_303_28867"/>
<feBlend mode="normal" in="SourceGraphic" in2="effect1_dropShadow_303_28867" result="shape"/>
</filter>
</defs>
</svg>
