<svg width="86" height="86" viewBox="0 0 86 86" fill="none" xmlns="http://www.w3.org/2000/svg">
<circle cx="43" cy="43" r="43" fill="#5D4135"/>
<path d="M28.7188 34.0938H52.9062V35.4375H28.7188V34.0938ZM28.7188 39.4688H39.4688V51.5625H28.7188V39.4688ZM30.0625 50.2188H38.125V40.8125H30.0625V50.2188ZM43.5 40.8125H52.9062V39.4688H43.5V40.8125ZM43.5 43.5H52.9062V42.1562H43.5V43.5ZM43.5 48.875H52.9062V47.5312H43.5V48.875ZM43.5 46.1875H52.9062V44.8438H43.5V46.1875ZM43.5 51.5625H52.9062V50.2188H43.5V51.5625ZM65 31.4062V54.25C65 57.2143 62.5893 59.625 59.625 59.625H27.375C24.4107 59.625 22 57.2143 22 54.25V28.7188C22 27.977 22.602 27.375 23.3438 27.375H58.2812C59.023 27.375 59.625 27.977 59.625 28.7188V30.0625H63.6562C64.398 30.0625 65 30.6645 65 31.4062ZM62.3125 32.75H58.2812V51.5625H56.9375V31.4062V30.0625H24.6875V54.25C24.6875 55.7322 25.8928 56.9375 27.375 56.9375H59.625C61.1072 56.9375 62.3125 55.7322 62.3125 54.25V32.75Z" fill="#D7C4B6"/>
</svg>
