<svg width="80" height="80" viewBox="0 0 80 80" fill="none" xmlns="http://www.w3.org/2000/svg">
<rect width="80" height="80" rx="40" fill="#401D13"/>
<path fill-rule="evenodd" clip-rule="evenodd" d="M40.5 33.7857V22.0357C40.5 19.256 38.244 17 35.4643 17H22.0357C19.256 17 17 19.256 17 22.0357V58.9643C17 61.744 19.256 64 22.0357 64H27.0714C27.998 64 28.75 63.248 28.75 62.3214C28.75 61.3949 27.998 60.6429 27.0714 60.6429H22.0357C21.1091 60.6429 20.3571 59.8909 20.3571 58.9643V22.0357C20.3571 21.1091 21.1091 20.3571 22.0357 20.3571H35.4643C36.3909 20.3571 37.1429 21.1091 37.1429 22.0357V33.7857C37.1429 34.7123 37.8949 35.4643 38.8214 35.4643C39.748 35.4643 40.5 34.7123 40.5 33.7857ZM40.5 64V53.9286C40.5 52.0754 42.004 50.5714 43.8571 50.5714H50.5714C52.4246 50.5714 53.9286 52.0754 53.9286 53.9286V64H58.9643C61.744 64 64 61.744 64 58.9643V42.1786C64 39.3989 61.744 37.1429 58.9643 37.1429H35.4643C32.6846 37.1429 30.4286 39.3989 30.4286 42.1786V58.9643C30.4286 61.744 32.6846 64 35.4643 64H40.5ZM43.8571 64H50.5714V53.9286H43.8571V64ZM25.3929 53.9286H27.0714C27.998 53.9286 28.75 53.1766 28.75 52.25C28.75 51.3234 27.998 50.5714 27.0714 50.5714H25.3929C24.4663 50.5714 23.7143 51.3234 23.7143 52.25C23.7143 53.1766 24.4663 53.9286 25.3929 53.9286ZM25.3929 47.2143H27.0714C27.998 47.2143 28.75 46.4623 28.75 45.5357C28.75 44.6091 27.998 43.8571 27.0714 43.8571H25.3929C24.4663 43.8571 23.7143 44.6091 23.7143 45.5357C23.7143 46.4623 24.4663 47.2143 25.3929 47.2143ZM38.8214 47.2143H42.1786C43.1051 47.2143 43.8571 46.4623 43.8571 45.5357C43.8571 44.6091 43.1051 43.8571 42.1786 43.8571H38.8214C37.8949 43.8571 37.1429 44.6091 37.1429 45.5357C37.1429 46.4623 37.8949 47.2143 38.8214 47.2143ZM52.25 47.2143H55.6071C56.5337 47.2143 57.2857 46.4623 57.2857 45.5357C57.2857 44.6091 56.5337 43.8571 55.6071 43.8571H52.25C51.3234 43.8571 50.5714 44.6091 50.5714 45.5357C50.5714 46.4623 51.3234 47.2143 52.25 47.2143ZM25.3929 40.5H27.0714C27.998 40.5 28.75 39.748 28.75 38.8214C28.75 37.8949 27.998 37.1429 27.0714 37.1429H25.3929C24.4663 37.1429 23.7143 37.8949 23.7143 38.8214C23.7143 39.748 24.4663 40.5 25.3929 40.5ZM25.3929 33.7857H32.1071C33.0337 33.7857 33.7857 33.0337 33.7857 32.1071C33.7857 31.1806 33.0337 30.4286 32.1071 30.4286H25.3929C24.4663 30.4286 23.7143 31.1806 23.7143 32.1071C23.7143 33.0337 24.4663 33.7857 25.3929 33.7857ZM25.3929 27.0714H32.1071C33.0337 27.0714 33.7857 26.3194 33.7857 25.3929C33.7857 24.4663 33.0337 23.7143 32.1071 23.7143H25.3929C24.4663 23.7143 23.7143 24.4663 23.7143 25.3929C23.7143 26.3194 24.4663 27.0714 25.3929 27.0714Z" fill="white"/>
</svg>
