<svg width="45" height="45" viewBox="0 0 45 45" fill="none" xmlns="http://www.w3.org/2000/svg">
<circle cx="22.5" cy="22.5" r="22.5" fill="#F5F5F5"/>
<path fill-rule="evenodd" clip-rule="evenodd" d="M29.6052 13.6589C28.5782 12.4977 26.7223 12 24.3474 12H17.4562C16.9704 12 16.5574 12.3506 16.4811 12.8257L13.6114 30.8805C13.5546 31.2366 13.8325 31.5591 14.1963 31.5591H18.4506L19.5192 24.8354L19.486 25.0458C19.5622 24.5707 19.9725 24.2201 20.4576 24.2201H22.479C26.4513 24.2201 29.5608 22.6196 30.4694 17.9901C30.4964 17.8526 30.5401 17.5893 30.5401 17.5893C30.7978 15.8761 30.538 14.7135 29.6052 13.6589ZM31.617 18.4662C30.6288 23.0242 27.4784 25.4366 22.479 25.4366H20.6662L19.3141 34H22.2545C22.6793 34 23.0404 33.6934 23.1069 33.2774L23.1416 33.096L23.8179 28.8459L23.8616 28.6115C23.9274 28.1955 24.2892 27.8889 24.7133 27.8889H25.2504C28.7244 27.8889 31.4451 26.4885 32.24 22.4392C32.5588 20.8139 32.4056 19.4514 31.617 18.4662Z" fill="#022B87"/>
</svg>
