<svg width="86" height="86" viewBox="0 0 86 86" fill="none" xmlns="http://www.w3.org/2000/svg">
<circle cx="43" cy="43" r="43" fill="#FDF9D2"/>
<g clip-path="url(#clip0_29_1704)">
<mask id="mask0_29_1704" style="mask-type:luminance" maskUnits="userSpaceOnUse" x="18" y="18" width="50" height="50">
<path d="M68 18H18V68H68V18Z" fill="white"/>
</mask>
<g mask="url(#mask0_29_1704)">
<path d="M47.9515 38.9671L48.7702 38.1483C49.1869 37.7317 49.2322 37.363 48.9062 37.0421C48.5801 36.7213 48.2087 36.7733 47.7921 37.1983L46.989 38.0015C46.0731 37.1375 44.8779 36.6303 43.6202 36.5718C42.6583 36.6244 41.7373 36.9779 40.9873 37.5824C40.2373 38.1869 39.6962 39.0118 39.4405 39.9405C39.299 40.6359 39.3421 41.3561 39.5655 42.0296C39.8468 42.8367 40.2063 43.6144 40.639 44.3515L37.1139 47.8749C36.89 47.4999 36.7543 47.0789 36.7171 46.6437C36.6903 46.2839 36.7393 45.9225 36.8608 45.5828C37.036 45.1371 37.2347 44.701 37.4562 44.2765C37.5843 44.0403 37.6268 43.767 37.5765 43.503C37.5157 43.2209 37.3701 42.9642 37.1593 42.7671C37.0309 42.6318 36.8756 42.5249 36.7033 42.4533C36.5311 42.3817 36.3457 42.347 36.1593 42.3515C35.9862 42.3473 35.814 42.378 35.653 42.4416C35.4919 42.5052 35.3453 42.6005 35.2218 42.7218C34.8799 43.0712 34.6106 43.4849 34.4296 43.939C34.2217 44.4615 34.11 45.0173 34.0999 45.5796C34.0849 46.2264 34.1909 46.8702 34.4124 47.478C34.6769 48.1922 35.0598 48.8567 35.5452 49.4437L33.4999 51.4905C33.3083 51.6564 33.1675 51.8731 33.0936 52.1156C33.0794 52.218 33.0917 52.3224 33.1295 52.4187C33.1673 52.5151 33.2292 52.6001 33.3093 52.6656C33.3761 52.7531 33.4688 52.8175 33.5743 52.8494C33.6797 52.8814 33.7925 52.8794 33.8968 52.8437C34.1762 52.7027 34.4268 52.5109 34.6358 52.278L36.5233 50.3921C37.2248 51.0099 38.0603 51.4561 38.964 51.6952C39.7608 51.9023 40.5989 51.8893 41.389 51.6577C42.1541 51.4288 42.8497 51.012 43.4124 50.4453C43.8528 50.0133 44.1986 49.4945 44.428 48.9218C44.6435 48.3757 44.7363 47.789 44.6999 47.2031C44.6758 46.6466 44.5458 46.0999 44.3171 45.5921C44.0879 45.0796 43.7457 44.4239 43.2905 43.6249L46.4436 40.4734C46.6552 40.8513 46.7618 41.2789 46.7525 41.7118C46.7432 42.1448 46.6182 42.5675 46.3905 42.9359C46.1956 43.1982 46.1038 43.5229 46.1326 43.8484C46.1614 44.1739 46.3088 44.4775 46.5468 44.7015C46.6693 44.8283 46.8166 44.9287 46.9794 44.9964C47.1423 45.0642 47.3173 45.0978 47.4936 45.0952C47.6675 45.1003 47.8406 45.0693 48.002 45.0042C48.1633 44.9391 48.3094 44.8414 48.4312 44.7171C48.684 44.4482 48.8768 44.1287 48.9968 43.7796C49.1515 43.3548 49.2421 42.9093 49.2655 42.4578C49.3192 41.856 49.2325 41.25 49.0124 40.6874C48.7475 40.0638 48.3898 39.4838 47.9515 38.9671ZM41.2905 48.8265C40.8952 49.2291 40.3607 49.465 39.7968 49.4859C39.1522 49.4981 38.5214 49.2983 38.0015 48.9171L41.3202 45.5984C41.6363 46.1531 41.8352 46.7668 41.9046 47.4015C41.9116 47.67 41.8596 47.9369 41.7521 48.1831C41.6446 48.4294 41.4844 48.649 41.2827 48.8265H41.2905ZM42.6093 42.3843C42.3571 41.8945 42.2012 41.3609 42.1499 40.8124C42.1896 40.3333 42.4013 39.8847 42.7459 39.5496C43.0906 39.2144 43.5449 39.0153 44.0249 38.989C44.5513 39.0465 45.0598 39.2142 45.5171 39.4812L42.6093 42.3843Z" fill="#5D4135"/>
<path d="M67.2446 19.5843C67.2434 19.4821 67.2209 19.3813 67.1786 19.2883C67.1362 19.1953 67.0749 19.1122 66.9985 19.0442C66.9222 18.9763 66.8326 18.925 66.7353 18.8937C66.638 18.8624 66.5353 18.8517 66.4336 18.8624C66.2289 18.8729 66.0362 18.9625 65.8963 19.1124C65.7564 19.2622 65.6801 19.4606 65.6836 19.6655C65.6836 19.764 65.6633 22.0968 60.5055 22.7562C59.612 22.8707 58.7477 23.151 57.9571 23.5827L55.4368 21.0609C55.2428 20.8668 55.0013 20.7273 54.7363 20.6563C54.4714 20.5852 54.1924 20.5852 53.9274 20.6562L41.4024 24.014C41.0057 24.0266 40.6286 24.1897 40.3477 24.4702L19.2133 45.6046C18.9204 45.8976 18.7559 46.2949 18.7559 46.7093C18.7559 47.1236 18.9204 47.5209 19.2133 47.814L38.0883 66.6874C38.3814 66.9803 38.7787 67.1449 39.193 67.1449C39.6073 67.1449 40.0047 66.9803 40.2977 66.6874L61.4383 45.5546C61.7181 45.2745 61.8812 44.8987 61.8946 44.503L65.2508 31.9749C65.3218 31.7099 65.3218 31.4309 65.2507 31.166C65.1797 30.901 65.0402 30.6594 64.8462 30.4655L59.1321 24.7515C59.6341 24.5283 60.1656 24.3783 60.7102 24.3062C67.4086 23.4499 67.254 19.7405 67.2446 19.5843ZM58.868 43.6983L39.193 63.3733L22.5321 46.7093L42.2071 27.0327L53.8696 23.9077L55.5758 25.6155C54.7894 26.6362 54.1745 27.7783 53.7555 28.9968C52.9442 28.9879 52.1578 29.277 51.5452 29.8091C50.9326 30.3412 50.5364 31.0794 50.4316 31.884C50.3268 32.6886 50.5207 33.5037 50.9766 34.175C51.4324 34.8462 52.1186 35.327 52.9052 35.5263C53.6917 35.7256 54.524 35.6295 55.2445 35.2563C55.965 34.8831 56.5236 34.2586 56.8146 33.5012C57.1056 32.7438 57.1087 31.9059 56.8234 31.1463C56.5381 30.3868 55.9841 29.7581 55.2665 29.3796C55.6039 28.4282 56.0821 27.5329 56.6852 26.7234L61.9977 32.0358L58.868 43.6983ZM54.8915 31.0108C55.1098 31.2294 55.2584 31.5078 55.3186 31.8109C55.3787 32.1139 55.3477 32.428 55.2294 32.7134C55.1111 32.9988 54.9108 33.2428 54.6539 33.4144C54.397 33.586 54.0949 33.6776 53.786 33.6776C53.477 33.6776 53.175 33.586 52.9181 33.4144C52.6612 33.2428 52.4609 32.9988 52.3426 32.7134C52.2243 32.428 52.1932 32.1139 52.2534 31.8109C52.3135 31.5078 52.4622 31.2294 52.6805 31.0108C52.8447 30.8506 53.0428 30.7294 53.2602 30.6562C53.1498 31.1124 53.0658 31.5746 53.0086 32.0405C52.989 32.2462 53.0517 32.4512 53.1829 32.6108C53.314 32.7704 53.5031 32.8715 53.7086 32.8921C53.7347 32.8936 53.7608 32.8936 53.7868 32.8921C53.9814 32.893 54.1693 32.8213 54.3138 32.691C54.4583 32.5606 54.549 32.381 54.568 32.1874C54.6211 31.7667 54.6977 31.3494 54.7977 30.9374C54.8227 30.9686 54.8618 30.9827 54.8915 31.0108Z" fill="#5D4135"/>
</g>
</g>
<defs>
<clipPath id="clip0_29_1704">
<rect width="50" height="50" fill="white" transform="translate(18 18)"/>
</clipPath>
</defs>
</svg>
