<svg width="306" height="306" viewBox="0 0 306 306" fill="none" xmlns="http://www.w3.org/2000/svg">
<path fill-rule="evenodd" clip-rule="evenodd" d="M22.6387 254.94C22.6387 267.228 32.591 277.183 44.8788 277.183H117.163C129.451 277.183 139.405 267.228 139.405 254.94V165.976C139.405 153.687 129.451 143.734 117.163 143.734H81.466C75.2915 143.734 70.3459 138.73 70.3459 132.614C70.3459 130.612 70.8447 129.223 70.8447 129.223C78.9623 102.309 99.4771 80.7357 125.779 71.1732L125.889 71.0618C133.843 67.6713 139.404 59.7735 139.404 50.5984C139.404 38.3112 129.45 28.3577 117.162 28.3577C114.16 28.3577 111.326 28.9684 108.714 30.0241L107.708 30.4158C57.9437 49.8199 22.6387 98.1954 22.6387 154.854V254.94ZM167.207 254.94C167.207 267.228 177.16 277.183 189.448 277.183H261.732C274.02 277.183 283.972 267.228 283.972 254.94V165.976C283.972 153.687 274.02 143.734 261.732 143.734H226.034C219.861 143.734 214.915 138.73 214.915 132.614C214.915 130.557 215.413 129.223 215.413 129.223C223.532 102.309 244.046 80.7357 270.349 71.1732L270.459 71.0618C278.412 67.6713 283.972 59.7735 283.972 50.5984C283.972 38.3112 274.02 28.3577 261.732 28.3577C258.73 28.3577 255.895 28.9684 253.284 30.0241L252.278 30.4158C202.512 49.8199 167.207 98.1954 167.207 154.854V254.94Z" fill="#573C30"/>
</svg>
