<svg width="29" height="29" viewBox="0 0 29 29" fill="none" xmlns="http://www.w3.org/2000/svg">
<path d="M10.1504 7.25H17.4004V10.15H10.1504V7.25ZM17.4004 13.05H10.1504V15.95H17.4004V13.05Z" fill="#5D4135"/>
<path fill-rule="evenodd" clip-rule="evenodd" d="M23.2 24.65C23.2 25.8036 22.7417 26.9101 21.9259 27.7259C21.1101 28.5416 20.0037 29 18.85 29H4.35C3.19631 29 2.08987 28.5416 1.27409 27.7259C0.458302 26.9101 0 25.8036 0 24.65L0 22.475C0 21.8981 0.229151 21.3449 0.637043 20.937C1.04493 20.5291 1.59815 20.2999 2.175 20.2999H4.35V5.79995C4.35 4.64626 4.8083 3.53982 5.62409 2.72404C6.43987 1.90825 7.54631 1.44995 8.7 1.44995H24.65C25.2213 1.44995 25.7869 1.56247 26.3147 1.78108C26.8424 1.99968 27.322 2.3201 27.7259 2.72404C28.1299 3.12797 28.4503 3.60751 28.6689 4.13528C28.8875 4.66304 29 5.2287 29 5.79995C29 6.3712 28.8875 6.93686 28.6689 7.46462C28.4503 7.99239 28.1299 8.47193 27.7259 8.87586C27.322 9.2798 26.8424 9.60022 26.3147 9.81883C25.7869 10.0374 25.2213 10.15 24.65 10.15H23.2V24.65ZM7.25 5.79995C7.25 5.41539 7.40277 5.04657 7.6747 4.77465C7.94662 4.50272 8.31544 4.34995 8.7 4.34995H20.5465C20.387 4.8038 20.3 5.29245 20.3 5.79995V24.65C20.3 25.0345 20.1472 25.4033 19.8753 25.6753C19.6034 25.9472 19.2346 26.1 18.85 26.1C18.4654 26.1 18.0966 25.9472 17.8247 25.6753C17.5528 25.4033 17.4 25.0345 17.4 24.65V20.2999H7.25V5.79995ZM24.65 4.34995C24.2654 4.34995 23.8966 4.50272 23.6247 4.77465C23.3528 5.04657 23.2 5.41539 23.2 5.79995V7.24995H24.65C25.0346 7.24995 25.4034 7.09718 25.6753 6.82526C25.9472 6.55333 26.1 6.18451 26.1 5.79995C26.1 5.41539 25.9472 5.04657 25.6753 4.77465C25.4034 4.50272 25.0346 4.34995 24.65 4.34995ZM14.5 24.65C14.5 25.1574 14.587 25.6461 14.7465 26.1H4.35C3.96544 26.1 3.59662 25.9472 3.3247 25.6753C3.05277 25.4033 2.9 25.0345 2.9 24.65V23.1999H14.5V24.65Z" fill="#5D4135"/>
</svg>
