<svg width="86" height="86" viewBox="0 0 86 86" fill="none" xmlns="http://www.w3.org/2000/svg">
<circle cx="43" cy="43" r="43" fill="#FDF9D2"/>
<path d="M29.7492 40.2002C29.7492 39.289 29.0105 38.5502 28.0992 38.5502C27.188 38.5502 26.4492 39.289 26.4492 40.2002H29.7492ZM41.2992 60.5502C42.2105 60.5502 42.9492 59.8114 42.9492 58.9002C42.9492 57.989 42.2105 57.2502 41.2992 57.2502V60.5502ZM26.4492 40.2002C26.4492 41.1114 27.188 41.8502 28.0992 41.8502C29.0105 41.8502 29.7492 41.1114 29.7492 40.2002H26.4492ZM41.2992 29.7502C42.2105 29.7502 42.9492 29.0115 42.9492 28.1002C42.9492 27.1889 42.2105 26.4502 41.2992 26.4502V29.7502ZM28.0992 38.5502C27.188 38.5502 26.4492 39.289 26.4492 40.2002C26.4492 41.1114 27.188 41.8502 28.0992 41.8502V38.5502ZM41.2992 41.8502C42.2105 41.8502 42.9492 41.1114 42.9492 40.2002C42.9492 39.289 42.2105 38.5502 41.2992 38.5502V41.8502ZM39.6492 40.2002C39.6492 41.1114 40.388 41.8502 41.2992 41.8502C42.2105 41.8502 42.9492 41.1114 42.9492 40.2002H39.6492ZM42.9492 28.1002C42.9492 27.1889 42.2105 26.4502 41.2992 26.4502C40.388 26.4502 39.6492 27.1889 39.6492 28.1002H42.9492ZM42.9492 40.2002C42.9492 39.289 42.2105 38.5502 41.2992 38.5502C40.388 38.5502 39.6492 39.289 39.6492 40.2002H42.9492ZM39.6492 47.9002C39.6492 48.8114 40.388 49.5502 41.2992 49.5502C42.2105 49.5502 42.9492 48.8114 42.9492 47.9002H39.6492ZM41.2992 57.2502C40.388 57.2502 39.6492 57.989 39.6492 58.9002C39.6492 59.8114 40.388 60.5502 41.2992 60.5502V57.2502ZM60.5492 47.9002C60.5492 46.989 59.8105 46.2502 58.8992 46.2502C57.988 46.2502 57.2492 46.989 57.2492 47.9002H60.5492ZM39.6492 58.9002C39.6492 59.8114 40.388 60.5502 41.2992 60.5502C42.2105 60.5502 42.9492 59.8114 42.9492 58.9002H39.6492ZM42.9492 47.9002C42.9492 46.989 42.2105 46.2502 41.2992 46.2502C40.388 46.2502 39.6492 46.989 39.6492 47.9002H42.9492ZM41.2992 26.4502C40.388 26.4502 39.6492 27.1889 39.6492 28.1002C39.6492 29.0115 40.388 29.7502 41.2992 29.7502V26.4502ZM57.2492 47.9002C57.2492 48.8114 57.988 49.5502 58.8992 49.5502C59.8105 49.5502 60.5492 48.8114 60.5492 47.9002H57.2492ZM58.8992 49.5502C59.8105 49.5502 60.5492 48.8114 60.5492 47.9002C60.5492 46.989 59.8105 46.2502 58.8992 46.2502V49.5502ZM41.2992 46.2502C40.388 46.2502 39.6492 46.989 39.6492 47.9002C39.6492 48.8114 40.388 49.5502 41.2992 49.5502V46.2502ZM26.4492 40.2002V50.1002H29.7492V40.2002H26.4492ZM26.4492 50.1002C26.4492 55.8717 31.1278 60.5502 36.8992 60.5502V57.2502C32.9504 57.2502 29.7492 54.049 29.7492 50.1002H26.4492ZM36.8992 60.5502H41.2992V57.2502H36.8992V60.5502ZM29.7492 40.2002V36.9002H26.4492V40.2002H29.7492ZM29.7492 36.9002C29.7492 32.9513 32.9504 29.7502 36.8992 29.7502V26.4502C31.1278 26.4502 26.4492 31.1288 26.4492 36.9002H29.7492ZM36.8992 29.7502H41.2992V26.4502H36.8992V29.7502ZM28.0992 41.8502H41.2992V38.5502H28.0992V41.8502ZM42.9492 40.2002V28.1002H39.6492V40.2002H42.9492ZM39.6492 40.2002V47.9002H42.9492V40.2002H39.6492ZM41.2992 60.5502H50.0992V57.2502H41.2992V60.5502ZM50.0992 60.5502C55.8707 60.5502 60.5492 55.8717 60.5492 50.1002H57.2492C57.2492 54.049 54.048 57.2502 50.0992 57.2502V60.5502ZM60.5492 50.1002V47.9002H57.2492V50.1002H60.5492ZM42.9492 58.9002V47.9002H39.6492V58.9002H42.9492ZM41.2992 29.7502H50.0992V26.4502H41.2992V29.7502ZM50.0992 29.7502C54.048 29.7502 57.2492 32.9513 57.2492 36.9002H60.5492C60.5492 31.1288 55.8707 26.4502 50.0992 26.4502V29.7502ZM57.2492 36.9002V47.9002H60.5492V36.9002H57.2492ZM58.8992 46.2502H41.2992V49.5502H58.8992V46.2502Z" fill="#5D4135"/>
</svg>
