<svg width="102" height="79" viewBox="0 0 102 79" fill="none" xmlns="http://www.w3.org/2000/svg">
<path d="M34.9555 21.3639C35.0531 21.2013 35.1181 21.1038 35.2157 20.9412C35.2157 20.9412 35.2157 20.9087 35.2482 20.9087C35.2807 20.8762 35.3132 20.8111 35.3457 20.7461C35.4433 20.616 35.5083 20.486 35.5733 20.3884C35.6384 20.2909 35.7359 20.1608 35.801 20.0633C35.8335 19.9982 35.8985 19.9007 35.9636 19.8356C36.0611 19.7056 36.1261 19.5755 36.2237 19.478C36.3212 19.3479 36.4188 19.2178 36.4838 19.0878C36.5163 19.0227 36.5814 18.9577 36.6464 18.8927C36.744 18.7951 36.809 18.665 36.9065 18.5675C37.0041 18.4049 37.1342 18.3074 37.2317 18.1448C37.3943 17.9497 37.5569 17.7546 37.7195 17.5595C37.882 17.3644 38.0446 17.1693 38.2072 17.0067C38.3698 16.8116 38.5324 16.649 38.7275 16.4539C38.7275 16.4539 38.7275 16.4214 38.76 16.4214C38.9226 16.2263 39.0852 16.0637 39.2803 15.9011C39.4754 15.706 39.6705 15.5109 39.8656 15.3158C39.9956 15.1857 40.1257 15.0882 40.2558 14.9581L34.923 5.85343L34.8905 5.82091C33.8825 4.03249 32.3867 2.56924 30.6308 1.56122C28.192 0.130481 25.298 -0.324756 22.5016 0.22803L22.274 0.260548C21.0709 0.520683 19.9653 0.975917 18.9248 1.56122C18.8922 1.56122 18.8922 1.59373 18.8922 1.59373C17.1363 2.60175 15.6406 4.06501 14.6325 5.85343L1.56081 28.4526C0.552786 30.241 0 32.2571 0 34.3056V34.3706C0 36.4192 0.552786 38.4352 1.56081 40.1911C2.56883 41.9796 4.03208 43.4428 5.8205 44.4834H5.85302L5.88554 44.5159C7.64144 45.5239 9.69 46.0767 11.7386 46.0767H31.9965C30.5007 41.4268 30.143 36.5168 31.0535 31.6392C31.5738 28.8103 32.4517 26.1114 33.7199 23.6076C33.8174 23.4125 33.915 23.2499 33.98 23.0548C33.98 23.0223 34.0125 23.0223 34.0125 22.9898C34.1101 22.8272 34.1751 22.6646 34.2727 22.502L34.3052 22.4695C34.3377 22.437 34.3377 22.437 34.3377 22.4045C34.3702 22.372 34.3702 22.3069 34.4027 22.2744C34.4678 22.1443 34.5653 22.0143 34.6304 21.8842C34.7279 21.7216 34.8255 21.559 34.9555 21.3639ZM26.7613 41.2967C26.7613 42.3698 25.8833 43.2477 24.8103 43.2477C23.7372 43.2477 22.8593 42.3698 22.8593 41.2967V35.4437C22.8593 34.3706 23.7372 33.4927 24.8103 33.4927C25.8833 33.4927 26.7613 34.3706 26.7613 35.4437V41.2967ZM26.7613 29.1354C26.7613 30.2085 25.8833 31.0865 24.8103 31.0865C23.7372 31.0865 22.8593 30.2085 22.8593 29.1354V4.71534C22.8593 3.64229 23.7372 2.76434 24.8103 2.76434C25.8833 2.76434 26.7613 3.64229 26.7613 4.71534V29.1354Z" fill="#EBE4DC"/>
<path d="M78.9506 54.6285C79.1132 54.4659 79.2433 54.3034 79.4058 54.1408C79.4709 54.0757 79.5359 53.9782 79.6009 53.9132C79.6985 53.8156 79.7635 53.7181 79.8611 53.653C79.9261 53.588 79.9911 53.4904 80.0562 53.4254C80.1537 53.3279 80.2513 53.1978 80.3163 53.1002C80.3488 53.0352 80.4139 53.0027 80.4789 52.9377C80.609 52.7751 80.739 52.6125 80.8691 52.4174C81.0317 52.2223 81.1617 52.0272 81.2918 51.8321C81.5519 51.4419 81.8446 51.0517 82.1047 50.629C82.1372 50.5965 82.1373 50.5965 82.1373 50.5639C84.6736 46.4993 86.0393 41.8169 86.0393 36.9069C86.0393 30.0459 83.3729 23.5425 78.4954 18.665C73.6179 13.7875 67.147 11.1211 60.2535 11.1211C54.2704 11.1211 48.5799 13.1696 44.0276 16.8766L43.9951 16.9091C43.8325 17.0391 43.6699 17.1692 43.4748 17.3318C43.3122 17.4619 43.1822 17.5919 43.0521 17.722C42.7269 18.0472 42.3692 18.3723 42.0441 18.6975C41.7189 19.0227 41.4263 19.3478 41.1336 19.6405C40.971 19.8031 40.841 19.9657 40.7109 20.1282C32.0289 30.241 32.4841 45.5564 42.0441 55.1163C46.8891 59.9613 53.3924 62.6602 60.286 62.6602C65.196 62.6602 69.9109 61.2945 73.9755 58.7256L74.0081 58.6931C74.2032 58.5631 74.3983 58.433 74.5934 58.3029L74.6259 58.2704C74.821 58.1403 75.0161 58.0103 75.2112 57.8802C75.4063 57.7501 75.5689 57.6201 75.764 57.49C75.7965 57.4575 75.8615 57.425 75.894 57.3925C76.0566 57.2624 76.2192 57.1323 76.3818 57.0023C76.3818 57.0023 76.4143 57.0023 76.4143 56.9697C76.5769 56.8722 76.7069 56.7421 76.837 56.6121C76.9346 56.547 76.9996 56.482 77.0646 56.417C77.5849 55.9617 78.0727 55.539 78.5604 55.0512C78.658 54.9862 78.8205 54.8236 78.9506 54.6285ZM73.9755 50.6615C66.3991 58.2379 54.1078 58.2379 46.4989 50.6615C38.9225 43.0851 38.9225 30.7937 46.4989 23.1848C54.0753 15.6084 66.3666 15.6084 73.9755 23.1848C81.5519 30.7937 81.5519 43.0851 73.9755 50.6615Z" fill="#BEA998"/>
<path d="M101.875 70.6268C101.81 69.4562 101.387 67.8304 99.8915 66.6598L84.1859 54.531C84.0883 54.6936 83.9583 54.8237 83.8607 54.9537C83.7632 55.1163 83.6331 55.2464 83.5356 55.3764C83.4055 55.539 83.3079 55.6691 83.1779 55.8317C82.8527 56.2219 82.5275 56.6121 82.2024 56.9698C82.1048 57.0673 81.9748 57.1974 81.9097 57.2949C81.6821 57.5225 81.5195 57.7176 81.2919 57.9453C81.0643 58.1729 80.8692 58.368 80.6416 58.5631C80.544 58.6606 80.414 58.7907 80.3164 58.8557C79.9587 59.1809 79.5685 59.5061 79.1783 59.8312C79.0157 59.9613 78.8857 60.0589 78.7231 60.1889C78.5605 60.2865 78.4304 60.4165 78.3004 60.5141L78.2678 60.5466C78.1053 60.6442 77.9752 60.7742 77.8451 60.8718L89.9739 76.5449C91.1445 78.0406 92.7703 78.4633 93.9409 78.5284C96.022 78.6584 98.2006 77.813 99.6964 76.3498C101.16 74.8865 102.005 72.6754 101.875 70.6268Z" fill="#BEA998"/>
</svg>
