<svg width="97" height="107" viewBox="0 0 97 107" fill="none" xmlns="http://www.w3.org/2000/svg">
<path d="M71.5651 70.9975C71.2585 71.1569 70.7923 71.4636 70.3385 71.6108C65.432 74.2235 60.5254 76.6768 55.6189 79.2772C52.6995 80.8105 49.9396 82.1966 47.0325 83.7299C42.5798 86.036 38.2866 88.3298 33.8462 90.6359C31.0863 92.022 28.3263 93.5552 25.5664 94.9291C23.4198 96.0085 21.1137 97.2351 19.1266 98.3023C17.2866 99.2223 15.4467 100.302 13.6067 101.222C10.074 103.062 6.70079 104.902 3.18036 106.742C1.4876 107.662 -0.499541 105.969 0.113775 104.129C1.49987 99.8356 3.03316 95.5424 4.40699 91.2492C5.32696 88.7959 6.09974 86.3426 6.86025 83.8894C7.78023 81.1295 8.85966 78.2101 9.77964 75.4501C10.8591 72.2241 11.9262 68.8509 13.1529 65.6371C14.3795 62.2638 15.4589 58.7311 16.6856 55.3579C17.6056 52.598 18.5255 49.8381 19.4455 47.2253C20.8316 43.386 22.0582 39.3994 23.4321 35.5723C23.5915 35.2657 23.5915 34.959 23.7387 34.6523C39.5132 46.612 55.4717 58.7311 71.5651 70.9975Z" fill="#AD6663"/>
<path d="M71.4666 70.907C73.5196 68.2128 64.425 57.8303 51.1532 47.7171C37.8813 37.6039 25.4581 31.5896 23.4051 34.2838C21.352 36.978 30.4467 47.3605 43.7185 57.4737C56.9904 67.587 69.4136 73.6013 71.4666 70.907Z" fill="#7D4642"/>
<path d="M55.6187 79.277C52.6993 80.8103 49.9394 82.1964 47.0323 83.7297C42.5796 81.4236 37.5259 78.357 32.6194 74.0638C25.2596 67.7712 20.0464 60.8775 16.5137 55.051C17.4336 52.2911 18.3536 49.5312 19.2736 46.9185C23.2602 53.2111 29.2461 60.8775 37.6731 67.7712C43.9657 72.9844 50.2461 76.6643 55.6187 79.277Z" fill="#EDB3B0"/>
<path d="M33.8461 90.6235C31.0862 92.0096 28.3263 93.5429 25.5663 94.9167C22.9536 92.7701 20.3532 90.0102 17.5932 86.9436C14.22 82.9571 11.6073 78.811 9.62012 75.2906C10.6996 72.0646 11.7667 68.6913 12.9934 65.4775C15.4466 69.9302 18.8199 74.9839 23.4197 80.1971C26.9402 84.3431 30.4729 87.7164 33.8461 90.6235Z" fill="#EDB3B0"/>
<path d="M19.1266 98.2902C17.2866 99.2101 15.4467 100.29 13.6067 101.21C11.7668 100.13 9.92683 98.5968 8.08688 96.4502C6.55359 94.6103 5.32696 92.7703 4.40698 91.0776C5.32696 88.6243 6.09974 86.171 6.86025 83.7178C7.93968 86.6372 9.77963 90.1576 12.9934 93.5308C14.9806 95.6897 17.1272 97.223 19.1266 98.2902Z" fill="#EDB3B0"/>
<path d="M73.258 43.8519C75.121 43.8519 76.6312 42.3417 76.6312 40.4787C76.6312 38.6157 75.121 37.1055 73.258 37.1055C71.395 37.1055 69.8848 38.6157 69.8848 40.4787C69.8848 42.3417 71.395 43.8519 73.258 43.8519Z" fill="#AC6563"/>
<path d="M76.6311 66.0912C78.494 66.0912 80.0043 64.581 80.0043 62.718C80.0043 60.855 78.494 59.3447 76.6311 59.3447C74.7681 59.3447 73.2578 60.855 73.2578 62.718C73.2578 64.581 74.7681 66.0912 76.6311 66.0912Z" fill="#AC6563"/>
<path d="M57.6185 21.0123C59.0046 19.6262 59.0046 17.639 57.6185 16.253C56.2324 14.8669 54.2452 14.8669 52.8592 16.253C51.4731 17.639 51.4731 19.6262 52.8592 21.0123C54.0858 22.3861 56.2324 22.3861 57.6185 21.0123Z" fill="#AC6563"/>
<path d="M48.4062 5.98597L49.3262 9.19974L51.1661 6.43982L54.3922 6.59928L52.5522 3.98656L53.4722 0.919974L50.4056 1.99941L47.9523 0V3.22604L45.3396 5.06599L48.4062 5.98597Z" fill="#F8CCCC"/>
<path d="M89.9645 20.0924L91.044 23.159L92.8839 20.5463H96.0977L94.1106 17.9458L95.1777 14.8792L92.1111 15.9464L89.5107 14.1064V17.3325L86.8979 19.1724L89.9645 20.0924Z" fill="#F8CCCC"/>
<path d="M92.8838 35.879L89.8172 36.7989L87.2045 34.959L87.3639 38.185L84.604 40.025L87.6706 40.945L88.7377 44.0115L90.5777 41.3988H93.8037L91.8043 38.7983L92.8838 35.879Z" fill="#F8CCCC"/>
<path d="M21.8864 18.2521L22.9536 21.4659L24.6463 18.7059L28.0196 18.8654L26.0202 16.2527L27.0996 13.1861L24.033 14.2655L21.4203 12.2661V15.4922L18.8198 17.3321L21.8864 18.2521Z" fill="#F8CCCC"/>
<path d="M61.9126 62.7181C63.6054 61.0253 65.752 59.492 67.8986 58.4249C68.5119 58.1182 69.1252 57.8116 69.7385 57.5049C69.7385 57.5049 69.7385 57.5049 69.5791 57.5049C70.8057 57.0388 72.0323 56.5849 73.4184 56.2783C74.8045 55.9716 76.1783 55.6649 77.5644 55.5055C79.0977 55.346 80.4838 55.346 82.0171 55.346C82.7899 55.346 83.5504 55.5055 84.3232 55.5055C85.096 55.6649 85.8565 55.8121 86.6292 55.9716C88.0153 56.2783 89.5486 56.7444 91.0819 56.7444C91.2414 56.7444 91.3886 56.7444 91.548 56.7444C91.7075 56.7444 91.7075 56.7444 91.7075 56.5849C91.867 56.4255 91.867 56.2783 92.0142 56.2783C92.3208 55.8121 92.6275 55.3583 92.9341 54.8922C93.2408 54.426 93.4003 53.8127 93.7069 53.3589C93.7069 53.3589 94.0136 52.5861 93.8664 52.5861C91.7198 52.4266 89.5732 51.8133 87.4266 51.5067C85.28 51.2 82.9739 51.0405 80.8273 51.2C78.6807 51.3595 76.6813 51.6661 74.6941 52.2794C72.6947 52.7456 71.0142 53.5061 69.1743 54.5855C67.4815 55.5055 65.801 56.7321 64.4149 57.9587C64.2555 58.1182 64.1083 58.2654 63.9488 58.4249C63.6422 58.7315 63.4827 59.0382 63.3355 59.3448C63.0288 59.811 62.7222 60.4243 62.4155 60.8781C62.2561 61.3443 61.9494 61.7981 61.8022 62.2642C61.8022 62.4237 61.8022 62.4237 61.8022 62.5709C61.7531 62.7181 61.7531 62.7181 61.9126 62.7181Z" fill="#EEB4B1"/>
<path d="M43.6592 16.2528C43.6592 16.2528 43.6592 16.719 43.4997 16.719C42.8864 16.5595 42.2731 16.5595 41.807 16.5595C40.7275 16.5595 39.6604 16.719 38.5809 17.0256C37.661 17.3323 36.5815 17.7984 35.9682 18.5589C36.4343 19.025 36.8882 19.3317 37.3543 19.6383C37.8204 19.945 38.2743 20.1045 38.7404 20.4111C39.5132 20.7178 40.4332 21.1839 40.887 21.9444C41.1937 22.4105 41.3531 23.0239 41.3531 23.6372C41.3531 24.5571 41.3531 25.6366 41.3531 26.5566C41.3531 27.1699 41.1937 27.636 41.0465 28.2493C40.7398 29.3287 39.8198 30.2487 38.7404 30.862C38.1271 31.3282 37.3543 31.6348 36.741 32.2481C37.0477 32.4076 37.3543 32.7142 37.661 32.8614C38.1271 33.1681 38.5809 33.6342 38.7404 34.2475C38.8999 34.5542 38.8999 35.0203 38.8999 35.327C38.8999 35.9403 38.8999 36.5536 38.8999 37.3264C38.8999 38.0992 38.7404 38.7125 38.5932 39.3258C38.2865 39.9391 37.8204 40.4052 37.5138 40.8591C37.0476 41.3252 36.5938 41.7791 36.1277 42.2452C35.0482 43.3246 34.1283 44.5513 33.2083 45.6184C33.2083 45.7779 33.2083 45.7779 33.0488 45.6184V45.3854C33.0488 45.0787 33.0488 44.6126 33.0488 44.3059C33.0488 43.8398 33.0488 43.386 33.0488 42.9198C33.0488 42.7604 33.0488 42.6132 33.0488 42.4537C33.0488 42.2943 33.0488 42.2943 33.2083 42.1471C33.9811 41.2271 34.7416 40.3071 35.5144 39.3871C35.821 38.921 36.2871 38.4672 36.5938 38.1605C36.9005 37.8538 37.3666 37.3877 37.6732 37.0811L37.8327 36.9216C37.3666 36.4555 36.6061 36.1488 36.1399 35.695C35.8333 35.3883 35.6738 34.9222 35.6738 34.4683C35.5144 33.6956 35.6738 32.7756 35.6738 32.0151C35.6738 31.5489 35.6738 30.9356 35.8333 30.4818C35.9927 29.709 36.4466 29.2551 36.9127 28.789C37.9922 27.8691 39.2188 27.4029 40.1388 26.3358C40.2982 26.1763 40.4454 26.0291 40.6049 25.7224C39.8321 24.9497 38.9121 24.4958 37.9922 24.1892C37.526 24.0297 36.9127 23.723 36.4589 23.4164C35.8455 23.1097 35.3794 22.4964 35.0728 21.8831C34.7661 20.6564 34.7661 19.8837 34.7661 19.1232C34.7661 18.3626 34.7661 17.7371 34.9256 16.9766C34.9256 16.8171 34.9256 16.5104 35.085 16.2038C35.2445 15.431 35.5512 14.8177 36.1645 14.3638C37.0844 13.4439 38.4705 12.9777 39.6972 12.8305C40.9238 12.6711 42.3099 12.6711 43.6837 12.8305C43.8432 12.8305 43.8432 13.2967 43.8432 13.2967C43.8432 13.7628 43.8432 14.2166 43.8432 14.6827C43.6592 15.3329 43.6592 15.799 43.6592 16.2528Z" fill="#AC6563"/>
<path d="M78.0049 24.3856C77.3916 24.9989 76.7783 25.465 75.8583 25.7717C74.6317 26.2378 73.0984 26.0783 71.8718 25.6122C70.7923 25.3056 69.8724 24.8394 68.8052 24.6923C68.0324 24.5328 67.4191 24.3856 66.6586 24.2261C66.818 24.6922 66.9652 25.3056 67.1247 25.7594C67.4314 26.6794 67.738 27.5994 68.0447 28.5193C68.2041 29.4393 68.3513 30.2121 68.2041 31.1321C68.0447 31.5982 67.8975 32.052 67.738 32.5182C67.2719 33.5976 66.3519 34.5176 65.5914 35.2781C64.8309 36.0386 64.0581 36.9708 62.9787 37.2775C62.3654 37.437 61.752 37.437 61.1387 37.2775C59.9121 37.118 58.8327 36.5047 57.7655 36.0509C56.6861 35.5847 55.3122 35.2781 54.2328 35.4376C54.2328 36.517 54.5395 37.437 54.8461 38.5041C55.1528 39.2769 55.4594 40.0374 55.7661 40.8102C56.3794 42.1963 56.9927 43.5701 56.9927 45.1034C56.9927 45.8762 56.9927 46.4895 56.6861 47.25C56.3794 48.0105 55.7661 48.6361 55.3 49.3966C54.5272 50.3166 53.7667 51.2366 52.8467 52.0094C50.3934 54.0088 46.8607 52.9293 44.5669 51.0894C44.4075 50.9299 44.8736 50.6233 44.8736 50.4761C45.1802 50.0099 45.4869 49.5561 45.953 49.2494C46.2597 48.7833 46.7258 48.3295 47.0325 48.0228C47.0325 48.0228 47.4986 47.5567 47.6458 47.7161C49.3385 49.1022 51.4851 50.0222 53.6317 49.7156C53.7912 49.7156 53.9384 49.7156 53.9384 49.5561C53.9384 49.3966 53.9384 49.3966 53.9384 49.2494C53.9384 47.5567 53.1656 45.7167 52.5523 44.1834C51.7795 42.6502 51.1662 40.8102 51.3257 38.9703C51.3257 37.437 52.4051 36.0509 53.4723 34.8242C54.3923 33.7448 55.4717 32.5182 56.8455 32.2115C58.3788 31.9049 60.0716 32.371 61.6049 32.9843C62.8315 33.4504 64.0581 34.0637 65.4442 34.0637C65.4442 31.9171 64.3648 30.0772 63.9109 28.2372C63.7515 27.4644 63.6043 26.5445 64.0704 25.784C64.5365 24.864 65.297 24.0912 65.9103 23.1712C66.3765 22.5579 66.9898 21.9446 67.7503 21.4785C68.6703 20.8652 70.0564 21.0124 71.1235 21.1718C73.5768 21.6379 76.0301 23.1712 78.6428 22.7051C78.8022 22.7051 79.1089 22.5456 79.4156 22.5456C79.575 22.239 79.575 21.7729 79.575 21.4662C79.575 20.5462 79.4156 19.6263 78.8022 18.7063C78.6428 18.5468 78.9617 18.2402 79.1089 18.093C79.4156 17.6268 79.7222 17.173 80.1883 16.8663C80.495 16.4002 80.9611 16.0936 81.2678 15.6397C81.2678 15.6397 81.7339 15.1736 81.8811 15.333C82.8011 16.8663 82.8011 18.8657 82.0406 20.399C81.7339 21.0124 81.4272 21.6257 80.9611 22.0918C79.6977 22.5456 78.9249 23.4656 78.0049 24.3856Z" fill="#EEB4B1"/>
</svg>
