<svg width="15" height="16" viewBox="0 0 15 16" fill="none" xmlns="http://www.w3.org/2000/svg">
<path fill-rule="evenodd" clip-rule="evenodd" d="M4.45746 0.207464C4.5903 0.07463 4.77047 0 4.95833 0H10.625C11.7986 0 12.75 0.951398 12.75 2.125V4.95833C12.75 5.34953 12.4329 5.66667 12.0417 5.66667C11.6505 5.66667 11.3333 5.34953 11.3333 4.95833V2.125C11.3333 1.7338 11.0162 1.41667 10.625 1.41667H5.66667V4.95833C5.66667 5.34953 5.34955 5.66667 4.95833 5.66667H1.41667V13.4583C1.41667 13.8495 1.7338 14.1667 2.125 14.1667H4.95833C5.34955 14.1667 5.66667 14.4838 5.66667 14.875C5.66667 15.2662 5.34955 15.5833 4.95833 15.5833H2.125C0.951398 15.5833 0 14.632 0 13.4583V4.95833C0 4.77047 0.0746301 4.5903 0.207464 4.45746L4.45746 0.207464ZM2.4184 4.25H4.25V2.4184L2.4184 4.25ZM12.1632 12.5782C12.534 12.0183 12.75 11.3469 12.75 10.625C12.75 8.66901 11.1643 7.08333 9.20833 7.08333C7.25234 7.08333 5.66667 8.66901 5.66667 10.625C5.66667 12.581 7.25234 14.1667 9.20833 14.1667C9.9302 14.1667 10.6016 13.9507 11.1615 13.5799L12.9575 15.3759C13.2341 15.6525 13.6826 15.6525 13.9592 15.3759C14.2358 15.0993 14.2358 14.6507 13.9592 14.3741L12.1632 12.5782ZM7.08333 10.625C7.08333 9.45136 8.0347 8.5 9.20833 8.5C10.382 8.5 11.3333 9.45136 11.3333 10.625C11.3333 11.7986 10.382 12.75 9.20833 12.75C8.0347 12.75 7.08333 11.7986 7.08333 10.625Z" fill="#550000"/>
</svg>
