<svg width="22" height="22" viewBox="0 0 22 22" fill="none" xmlns="http://www.w3.org/2000/svg">
<path d="M3.66797 19.25C3.66797 16.0174 6.05837 13.3431 9.16797 12.8983M18.2179 13.9368C18.1553 13.9406 18.0924 13.9425 18.0291 13.9425C17.09 13.9425 16.2334 13.523 15.5846 12.8333C14.9359 13.523 14.0793 13.9424 13.1402 13.9424C13.0769 13.9424 13.0139 13.9405 12.9514 13.9367C12.8752 14.2865 12.8346 14.6534 12.8346 15.0314C12.8346 17.0611 14.0032 18.7665 15.5846 19.25C17.1661 18.7665 18.3346 17.0611 18.3346 15.0314C18.3346 14.6534 18.2941 14.2865 18.2179 13.9368ZM13.7513 6.41667C13.7513 8.44171 12.1096 10.0833 10.0846 10.0833C8.05959 10.0833 6.41797 8.44171 6.41797 6.41667C6.41797 4.39162 8.05959 2.75 10.0846 2.75C12.1096 2.75 13.7513 4.39162 13.7513 6.41667Z" stroke="#550000" stroke-width="1.2" stroke-linecap="round" stroke-linejoin="round"/>
</svg>
