<svg width="22" height="22" viewBox="0 0 22 22" fill="none" xmlns="http://www.w3.org/2000/svg">
<path d="M15.1263 13.2017C14.8561 13.0455 14.5565 12.934 14.2374 12.8766C14.1682 12.8642 14.0949 12.8553 14.0118 12.849C13.8054 12.8333 13.7022 12.8255 13.5644 12.8358C13.4212 12.8464 13.3413 12.8606 13.203 12.8996C13.0701 12.9371 12.8307 13.0455 12.3517 13.2625C11.6605 13.5757 10.8929 13.75 10.0846 13.75C9.27641 13.75 8.50882 13.5757 7.81755 13.2625C7.33857 13.0455 7.09907 12.937 6.96611 12.8995C6.8279 12.8606 6.74781 12.8464 6.60461 12.8357C6.46684 12.8254 6.36369 12.8333 6.15741 12.8491C6.07303 12.8555 5.99859 12.8646 5.92808 12.8773C4.79952 13.0817 3.91627 13.9649 3.71195 15.0935C3.66797 15.3364 3.66797 15.6278 3.66797 16.2104V17.7833C3.66797 18.2968 3.66797 18.5534 3.76788 18.7495C3.85577 18.922 3.996 19.0622 4.16848 19.1501C4.36456 19.25 4.62126 19.25 5.13464 19.25H9.6263M13.7513 6.41667C13.7513 8.44171 12.1096 10.0833 10.0846 10.0833C8.05959 10.0833 6.41797 8.44171 6.41797 6.41667C6.41797 4.39162 8.05959 2.75 10.0846 2.75C12.1096 2.75 13.7513 4.39162 13.7513 6.41667Z" stroke="#550000" stroke-width="1.2" stroke-linecap="round" stroke-linejoin="round"/>
</svg>
