<svg viewBox="413.4751773049645 183.29999999999998 271.74940898345153 291.2" xmlns:xlink="http://www.w3.org/1999/xlink" xmlns="http://www.w3.org/2000/svg" data-name="Layer 1" id="Layer_1" style="max-height: 500px" width="271.74940898345153" height="291.2">
  <defs>
    <style>
      .cls-1 {
        fill: url(#linear-gradient);
      }

      .cls-2 {
        fill: #987555;
      }

      .cls-3 {
        fill: #500;
      }

      .cls-4 {
        fill: #3d2014;
      }

      .cls-5 {
        fill: url(#linear-gradient-8);
      }

      .cls-6 {
        fill: url(#linear-gradient-9);
      }

      .cls-7 {
        fill: url(#linear-gradient-3);
      }

      .cls-8 {
        fill: url(#linear-gradient-4);
      }

      .cls-9 {
        fill: url(#linear-gradient-2);
      }

      .cls-10 {
        fill: url(#linear-gradient-6);
      }

      .cls-11 {
        fill: url(#linear-gradient-7);
      }

      .cls-12 {
        fill: url(#linear-gradient-5);
      }

      .cls-13 {
        fill: url(#linear-gradient-12);
      }

      .cls-14 {
        fill: url(#linear-gradient-10);
      }

      .cls-15 {
        fill: url(#linear-gradient-11);
      }
    </style>
    <linearGradient gradientUnits="userSpaceOnUse" y2="348.74" x2="593.3" y1="348.74" x1="566.99" id="linear-gradient">
      <stop stop-color="#554536" offset="0"/>
      <stop stop-color="#bea998" offset=".53"/>
      <stop stop-color="#574231" offset="1"/>
    </linearGradient>
    <linearGradient xlink:href="#linear-gradient" y2="229.03" x2="594.95" y1="229.03" x1="566.64" id="linear-gradient-2"/>
    <linearGradient xlink:href="#linear-gradient" y2="213.57" x2="584.47" y1="213.57" x1="577.34" id="linear-gradient-3"/>
    <linearGradient xlink:href="#linear-gradient" y2="384.62" x2="593.3" y1="384.62" id="linear-gradient-4"/>
    <linearGradient xlink:href="#linear-gradient" y2="415.76" x2="593.3" y1="415.76" id="linear-gradient-5"/>
    <linearGradient xlink:href="#linear-gradient" y2="408.37" y1="408.37" id="linear-gradient-6"/>
    <linearGradient xlink:href="#linear-gradient" y2="392.3" x2="593.3" y1="392.3" x1="566.99" id="linear-gradient-7"/>
    <linearGradient xlink:href="#linear-gradient" y2="401" y1="401" id="linear-gradient-8"/>
    <linearGradient xlink:href="#linear-gradient" y2="295.43" x2="593.3" y1="295.43" x1="566.99" id="linear-gradient-9"/>
    <linearGradient xlink:href="#linear-gradient" y2="304.38" x2="593.3" y1="304.38" x1="566.99" id="linear-gradient-10"/>
    <linearGradient xlink:href="#linear-gradient" y2="344.84" x2="593.3" y1="344.84" x1="566.99" id="linear-gradient-11"/>
    <linearGradient xlink:href="#linear-gradient" y2="284.97" x2="593.3" y1="284.97" id="linear-gradient-12"/>
  </defs>
  <g>
    <path d="m451.9,428.18v14.7h-4.07v-14.7h-5.16v-3.52h14.39v3.52h-5.16Z"/>
    <path d="m463.69,424.66h4.07v18.22h-4.07v-18.22Z"/>
    <path d="m483.6,428.18v14.7h-4.07v-14.7h-5.16v-3.52h14.39v3.52h-5.16Z"/>
    <path d="m495.38,442.88v-18.22h4.07v14.6h7.77v3.62h-11.83Z"/>
    <path d="m526.97,424.66v3.62h-9.07v3.75h8.16v3.47h-8.16v3.78h9.36v3.6h-13.42v-18.22h13.14Z"/>
    <path d="m561.38,431.41l-4.93,9.96h-2.42l-4.9-9.96v11.47h-4.07v-18.22h5.5l4.69,10.01,4.72-10.01h5.47v18.22h-4.07v-11.47Z"/>
    <path d="m578.4,438.18c.68.84,1.59,1.26,2.74,1.26s2.05-.42,2.72-1.26c.67-.84,1-1.99,1-3.45v-10.06h4.07v10.19c0,2.64-.73,4.67-2.19,6.09-1.46,1.42-3.33,2.12-5.6,2.12s-4.15-.71-5.62-2.14c-1.47-1.42-2.2-3.45-2.2-6.07v-10.19h4.07v10.06c0,1.46.34,2.61,1.02,3.45Z"/>
    <path d="m609.55,424.66h4.07v18.22h-4.07l-8.68-11.42v11.42h-4.07v-18.22h3.81l8.94,11.73v-11.73Z"/>
    <path d="m621.74,424.66h4.07v7.48l6.88-7.48h5.03l-7.25,8.05c.63.87,1.78,2.49,3.47,4.86,1.68,2.37,2.95,4.14,3.78,5.3h-4.74l-5.34-7.19-1.82,2.03v5.16h-4.07v-18.22Z"/>
    <path d="m657.04,424.66v3.62h-9.07v3.75h8.16v3.47h-8.16v3.78h9.36v3.6h-13.42v-18.22h13.14Z"/>
  </g>
  <polygon points="534.42 373.44 534.42 373.44 534.42 373.44 534.42 373.44" class="cls-4"/>
  <polygon points="586.09 293.66 586.08 293.66 586.07 293.68 586.09 293.66"/>
  <path d="m583.29,334.62c-2.58-5.75-5.18-11.69-7.27-17.95v60.49c0,.96-.3,1.89-.87,2.67l-.7.97h11.69l-.7-.97c-.56-.77-.87-1.71-.87-2.67v-39.71c-.42-.94-.85-1.89-1.28-2.84Z" class="cls-1"/>
  <g>
    <path d="m508,342.82c.47-.34.93-.61,1.39-.81.26-.12.52-.21.81-.28.22-.05.46-.09.72-.09.2,0,.42.02.64.08.22.06.45.15.65.27.42.24.73.61.91.95.12.23.2.45.25.65.05.19.06.37.07.54.24-.16.46-.3.7-.43.15-.08.31-.16.54-.24.12-.04.26-.08.47-.11h0c.14-.02.28-.03.42-.03.36,0,.77.07,1.17.25.4.18.77.49,1.01.85.17.24.28.49.36.73.1.32.14.62.14.9,0,.17-.02.32-.04.48.17.03.35.08.51.15.35.14.65.35.89.58.49.47.73.99.86,1.47.09.32.13.64.13.95,0,.2-.02.4-.05.61h0c-.04.24-.11.41-.17.55.36.32.58.66.73.95.11.21.18.4.25.59h0c.1.28.12.53.12.73,0,.41-.09.66-.16.87-.07.21-.15.37-.23.52-.16.3-.33.58-.52.86-.24.36-.51.74-.76,1.11l19.73-6.48-9.55-29.06s-27.76,10.77-28.33,10.6l5.32,12.17c.34-.33.68-.62,1.03-.86Z" class="cls-3"/>
    <polygon points="521.51 316.36 502.5 329.5 523.13 321.51 521.51 316.36" class="cls-2"/>
    <polygon points="500.2 329.05 485.21 316.69 485.46 321.09 500.2 329.05" class="cls-2"/>
    <path d="m505.68,356.62c-.41-1.1-.75-2.21-1.01-3.28-.3-1.26-.48-2.46-.48-3.56,0-.59.05-1.17.2-1.74.25-.93.63-1.75,1.08-2.47l-6.17-14.35-18.58-10.67,12.18,30.05,12.78,6.03Z" class="cls-3"/>
    <path d="m582.71,260.23c10.65.1,20.47.92,28.5,2.24-1.04-15.86-14.36-26.53-30.64-26.53s-29.61,10.67-30.65,26.53c-.91.16-1.8.31-2.66.47v4.26c.87-.16,1.76-.32,2.68-.47,8.56-1.42,19.16-2.25,30.63-2.25s22.07.84,30.63,2.25c.94.16,1.87.32,2.76.49v-4.26c-.88-.17-1.8-.33-2.74-.49-8.03-1.32-17.85-2.14-28.5-2.24Z" class="cls-3"/>
    <path d="m550.43,268.02c-.3-.02-.56.21-.58.51l-.62,9.96v.14c.04.64.59,1.13,1.24,1.09.64-.04,1.13-.59,1.09-1.24l-.62-9.96c-.02-.27-.23-.49-.51-.51Z" class="cls-3"/>
    <path d="m555.2,267.34c-.3-.02-.56.21-.58.51l-.62,9.88v.15c.04.64.59,1.13,1.24,1.09.64-.04,1.13-.59,1.09-1.24l-.62-9.88c-.02-.27-.23-.49-.51-.51Z" class="cls-3"/>
    <path d="m559.97,266.8c-.3-.02-.56.21-.58.51l-.62,9.85v.15c.04.64.59,1.13,1.24,1.09.64-.04,1.13-.59,1.09-1.24l-.62-9.85c-.02-.27-.23-.49-.51-.51Z" class="cls-3"/>
    <path d="m564.74,266.4c-.3-.02-.56.21-.58.51l-.62,9.84v.15c.04.64.59,1.13,1.24,1.09.64-.04,1.13-.59,1.09-1.24l-.62-9.84c-.02-.27-.23-.49-.51-.51Z" class="cls-3"/>
    <path d="m570.02,266.62c-.02-.27-.23-.49-.51-.51-.3-.02-.56.21-.58.51l-.62,9.83v.15c.04.64.59,1.13,1.24,1.09.64-.04,1.13-.59,1.09-1.24l-.62-9.83Z" class="cls-3"/>
    <path d="m575.41,276.25l-.62-9.75c-.02-.27-.23-.49-.51-.51-.3-.02-.56.21-.58.51l-.62,9.75v.15c.04.64.6,1.13,1.24,1.09.64-.04,1.13-.6,1.09-1.24Z" class="cls-3"/>
    <path d="m580.18,276.14l-.62-9.64c-.02-.27-.23-.49-.51-.51-.3-.02-.56.21-.58.51l-.62,9.64v.15c.04.64.6,1.13,1.24,1.09s1.13-.6,1.09-1.24Z" class="cls-3"/>
    <path d="m583.81,265.99c-.3-.02-.56.21-.58.51l-.62,9.62v.15c.04.64.6,1.13,1.24,1.09.64-.04,1.13-.6,1.09-1.24l-.62-9.62c-.02-.27-.23-.49-.51-.51Z" class="cls-3"/>
    <path d="m589.71,276.18l-.62-9.68c-.02-.27-.23-.49-.51-.51-.3-.02-.56.21-.58.51l-.62,9.68v.15c.04.64.6,1.13,1.24,1.09.64-.04,1.13-.59,1.09-1.24Z" class="cls-3"/>
    <path d="m593.36,266.2c-.3-.02-.56.21-.58.51l-.62,9.61v.15c.04.64.6,1.13,1.24,1.09.64-.04,1.13-.6,1.09-1.24l-.62-9.61c-.02-.27-.23-.49-.51-.51Z" class="cls-3"/>
    <path d="m598.12,266.53c-.3-.02-.56.21-.58.51l-.62,9.52v.15c.04.64.6,1.13,1.24,1.09.64-.04,1.13-.6,1.09-1.24l-.62-9.52c-.02-.27-.23-.49-.51-.51Z" class="cls-3"/>
    <path d="m602.9,266.97c-.3-.02-.56.21-.58.51l-.62,9.43v.15c.04.64.6,1.13,1.24,1.09.64-.04,1.13-.6,1.09-1.24l-.62-9.43c-.02-.27-.23-.49-.51-.51Z" class="cls-3"/>
    <path d="m607.66,267.56c-.3-.02-.56.21-.58.51l-.62,9.32v.15c.04.64.6,1.13,1.24,1.09.64-.04,1.13-.6,1.09-1.24l-.62-9.32c-.02-.27-.23-.49-.51-.51Z" class="cls-3"/>
    <path d="m612.44,268.3c-.3-.02-.56.21-.58.51l-.62,9.21v.16c.04.64.6,1.13,1.24,1.09.64-.04,1.13-.6,1.09-1.24l-.62-9.21c-.02-.27-.23-.49-.51-.51Z" class="cls-3"/>
    <path d="m594.95,236.73v-2.4c-2.37-.97-4.89-1.7-7.52-2.16v-7.9c.57.1,1.15.21,1.71.33v-2.19c0-.08.02-.14.04-.2-1.53-.34-3.1-.6-4.7-.76-1.21-.08-2.47-.12-3.76-.12-1.61,0-3.16.06-4.64.18-1.17.13-2.32.32-3.45.55v2.41c.61-.13,1.22-.24,1.84-.33v7.9c-2.74.42-5.37,1.13-7.83,2.1v2.4c4.25-1.67,8.96-2.57,13.92-2.57s10.02.96,14.39,2.75Z" class="cls-9"/>
    <path d="m579.09,217.42v.34h0c-.49.01-.89.41-.89.9v1.48c.78-.05,1.57-.08,2.37-.08,1.05,0,2.08.06,3.1.13v-1.52c0-.49-.39-.88-.87-.9h-.03v-.67c0-1.75.52-3.43,1.32-4.99.33-.65.47-1.42.33-2.23-.24-1.43-1.38-2.6-2.8-2.87-2.28-.44-4.28,1.29-4.28,3.5,0,.65.18,1.27.48,1.79.9,1.54,1.27,3.34,1.27,5.12Z" class="cls-7"/>
  </g>
  <path d="m543.05,294.06c.05,0,.1.01.16.02l-.07-.02h-.09Z" class="cls-4"/>
  <g>
    <path d="m578.38,382.97h-3.53c-1.25,0-2.26,1.01-2.26,2.26v1.06h15.42v-1.06c0-1.25-1.01-2.26-2.26-2.26h-7.37Z" class="cls-8"/>
    <polygon points="578.38 413.09 549.9 413.09 549.9 418.42 578.38 418.42 582.21 418.42 610.69 418.42 610.69 413.09 582.21 413.09 578.38 413.09" class="cls-12"/>
    <polygon points="578.38 405.7 560.21 405.7 554.71 411.03 578.38 411.03 582.21 411.03 605.88 411.03 600.38 405.7 582.21 405.7 578.38 405.7" class="cls-10"/>
    <path d="m582.85,388.34h-5.11c-4.37,0-7.91,3.54-7.91,7.91h20.92c0-4.37-3.54-7.91-7.91-7.91Z" class="cls-11"/>
    <polygon points="578.38 398.31 565.02 398.31 565.02 400.84 562.08 403.69 578.38 403.69 582.21 403.69 598.51 403.69 595.57 400.84 595.57 398.31 582.21 398.31 578.38 398.31" class="cls-5"/>
    <path d="m574.36,299.41h11.88c2.19,0,3.98-1.79,3.98-3.98s-1.79-3.98-3.98-3.98h-11.88c-2.19,0-3.98,1.79-3.98,3.98s1.79,3.98,3.98,3.98" class="cls-6"/>
    <path d="m588.01,304.98c0-1.25-1.01-2.26-2.26-2.26h-10.9c-1.25,0-2.26,1.01-2.26,2.26v1.06h15.42v-1.06Z" class="cls-14"/>
    <path d="m582.22,308.64h-6.19v68.77c0,.96-.3,1.89-.87,2.67l-.7.97h11.69l-.7-.97c-.56-.77-.87-1.71-.87-2.67v-68.77h-2.36Z" class="cls-15"/>
    <path d="m579.99,280.65c-3.53,0-6.82.36-9.58,1l3.96,7.64h11.88l3.89-7.51c-2.88-.71-6.38-1.13-10.15-1.13Z" class="cls-13"/>
  </g>
  <g>
    <path d="m543.94,306.9c-2.49,0-4.54-1.85-4.86-4.25l-.02.02c-.34-.28-.59-.34-.85-.34-.22,0-.45.06-.64.15-.19.08-.32.18-.36.2h0s0,0,0,0l-.02-.03c-.33,2.33-2.32,4.13-4.75,4.13-2.25,0-4.12-1.54-4.65-3.62h-2.02c.45,2.96,2.81,5.29,5.79,5.7-.22.37-.43.75-.58,1.16-.78,2.11-.86,5.02-.13,7.33,1.1-.71,2.9-1.57,4.63-1.16,2.75.67,5.77,1.75,8.53,1.01,1.37-.37,2.25-.82,2.77-1.18.1-2.68-1.59-5.18-2.7-6.53-.33-.29-.87-.78-1.48-1.41,1.21.47,2.04.38,2.04.38,2.98-.33,4.63-2.72,4.64-2.73.52-.78,1.02-1.61,1.34-2.49h-1.94c-.55,2.11-2.47,3.66-4.75,3.66Zm-11.45,1.55s-.16-.5.48-.58c1.24-.25,1.45,2.09,1.45,2.09-1.19.14-1.94-.84-1.93-1.51Zm2.81,1.51s.2-2.39,1.48-2.08c1.02.24.2,2.29-1.48,2.08Z" class="cls-4"/>
    <path d="m543.94,298.3c-1.02,0-1.94.41-2.61,1.08-.67.67-1.08,1.59-1.08,2.61,0,1.02.41,1.94,1.08,2.61.67.67,1.59,1.08,2.61,1.08,1.02,0,1.94-.41,2.61-1.08.67-.67,1.08-1.59,1.08-2.61s-.41-1.94-1.08-2.61c-.67-.67-1.59-1.08-2.61-1.08Zm0,5.51c-1.01,0-1.83-.82-1.83-1.83h3.65c0,1.01-.82,1.83-1.83,1.83Z" class="cls-4"/>
    <path d="m532.44,298.38c-1,0-1.89.4-2.55,1.05-.65.65-1.05,1.55-1.05,2.55s.4,1.89,1.05,2.55c.65.65,1.55,1.05,2.55,1.05,1,0,1.89-.4,2.55-1.05.65-.65,1.05-1.55,1.05-2.55,0-1-.4-1.89-1.05-2.55-.65-.65-1.55-1.05-2.55-1.05Zm.1,5.42c-1.01,0-1.83-.82-1.83-1.83h3.65c0,1.01-.82,1.83-1.83,1.83Z" class="cls-4"/>
    <path d="m527.68,301.36c.31-2.35,2.32-4.17,4.75-4.17,2.22,0,4.08,1.51,4.63,3.56.32-.12.69-.21,1.14-.21.31,0,.65.05.99.17.56-2.09,2.47-3.63,4.74-3.63,2.53,0,4.61,1.91,4.88,4.36h2.09l.06-.05c.03-2.69-2.13-5.62-4.56-6.6-3-1.21-6.85-.49-8.56,2.44-.09.15-.16.3-.23.45-.28-.32-.59-.62-.92-.88-.07-.06-.13-.12-.16-.15-.39-.33-.85-.57-1.32-.75-.83-.36-1.75-.57-2.72-.57-3.49,0-6.37,2.63-6.75,6.02h1.95Z" class="cls-4"/>
    <path d="m547.94,364.69c.94-.92,2.04-1.66,3.26-2.18.66-.28,1.36-.5,2.08-.66-.18-.01-.36-.02-.53-.02-.49,0-.92.05-1.28.14-.35.09-.63.21-.85.36-1.13.75-2.27,1.36-3.35,1.97-1.08.6-2.09,1.18-2.95,1.84h0s-.14.12-.26.24c-.13.12-.28.28-.43.45-.31.34-.64.74-.88,1.06-.16.21-.27.4-.29.44h0c-.03.06-.08.18-.1.3-.02.06-.03.13-.03.19.12,0,.23-.02.36-.04.15-.03.31-.08.5-.13.13-.03.27-.08.48-.11.12-.02.26-.04.46-.04.14,0,.32.01.53.07.14.04.31.1.47.19.76-1.56,1.67-2.92,2.82-4.04Z" class="cls-4"/>
    <path d="m526.39,307.98c.01.06.02.12.04.18l.03-.12-.07-.06Z" class="cls-4"/>
    <path d="m540.12,324.04c2.85.1,5.77-2.16,6.57-5.69-1.11.81-2.74,1.59-4.66,1.7-2.48.13-5.84-1.95-8.06-1.21-1.15.38-1.58,1.2-1.72,1.9,1.48,1.91,3.59,2.82,6.11,3.16.55.07,1.13.13,1.76.14Z" class="cls-4"/>
    <path d="m523.7,384.14s1.24,10.94,5.49,14.96c.15-.02.29-.03.45-.04.62-.05,1.35-.07,2.15-.09,1.6-.04,1.22-.06,2.91-.18,1.11-.08,2.13-.21,2.79-.38h0c.28-.07.48-.14.58-.19.03-.05.08-.13.13-.25.14-.3.31-.77.47-1.38.34-1.21.67-2.91,1.01-4.92.69-4.02,1.45-9.27,2.67-14.77.04-.18.08-.36.12-.54.17-.76.36-1.49.55-2.19-.49.07-1.05.15-1.67.18-.03.13-.06.27-.11.39v.02s-.01,0-.01,0c-.18.44-.47.78-.75,1.02-.29.24-.58.4-.86.52h0c-.56.22-1.09.3-1.61.3h0c-.28,0-.56-.02-.85-.08-.29-.06-.59-.15-.92-.33h0s0,0,0,0h0s0,0,0,0c-.2-.11-.35-.23-.49-.35l-.12.02c-.15.03-.32.05-.51.05h-.01c-.37,0-.79-.09-1.18-.27-.28-.13-.54-.31-.77-.52l-2.08.32-.55-.27c-.33-.17-.59-.38-.78-.59-.19-.21-.33-.41-.44-.6-.22-.38-.35-.73-.44-1.03h0c-.15-.48-.21-.86-.24-1.03l-1.18-.44c-.89-.33-2.37-.92-4.1-1.62-1.73-.7-3.72-1.52-5.61-2.29-1.53-.63-2.99-1.23-4.19-1.73-1.83.85-3.22,2.29-4.35,4.38-1.14,2.1-2,4.86-2.76,8.29-1.8,8.08-1.64,13.61-2.3,16.68-.04.19-.09.37-.14.54-.48,1.47-1.6,1.99-2.34,2.18-2.55.13-5.21.09-6.52.23-.37.04-.64.1-.71.15-.16.1-.49.38-.88.76-.4.38-.88.88-1.38,1.41-1.01,1.07-1.33,1.35-2.11,2.25-.52.6-.9,1.05-.98,1.18-.28.42-1.22,2.16-1.21,3.63,0,.52.11.99.4,1.38.06.03.26.14.59.31.36-2.91,1.53-4.41,1.59-4.48,1.08-1.79,2.2-3.06,3.64-4.08.48-.34.91-.55,1.28-.56.09,0,.17.01.25.04.17.06.31.15.4.28.09.12.13.27.13.41,0,.38-.23.79-.55,1.2-.32.41-.73.81-1.13,1.14,0,0-.16.15-.4.41-.25.26.2-.32-.16.11-.73.87-1.55,2-1.94,3.04-.48,1.28-.64,2.6-.68,3.66.28.13.58.26.89.4.34-2.98,1.54-4.52,1.6-4.59,1.08-1.79,2.2-3.06,3.64-4.08.48-.34.91-.55,1.28-.56.09,0,.17.01.25.04.17.06.31.16.4.28.09.12.13.27.13.41,0,.38-.23.79-.55,1.2-.32.41-.73.81-1.13,1.14,0,0-.16.15-.4.41-.25.26.2-.32-.16.11-.73.87-1.55,2-1.94,3.04-.44,1.18-.61,2.41-.67,3.42.35.08.7.14,1.05.19.38-1.42,1.29-3.85,3.31-5.83,1.66-1.63,1.94-1.65,2.62-2.05.23-.13.42-.21.6-.21.13,0,.25.05.33.14.08.09.13.21.16.34.03.12.04.24.04.36,0,.44-.19.86-.57,1.38-.39.52-.2.19-1.05,1.04-1.53,1.52-2.83,3.38-3.43,4.96,1.46-.02,2.73-.32,3.37-.91.7-.63,1.31-1.86,2.16-3.07.86-1.21,1.19-1.46,2.97-2,.21-.06.32-.11.38-.14,1.2-.16,2.24-.33,2.91-.63l.13-.06c.2-.1.35-.22.47-.34.31-.34,1.31-1.37,2.66-3.15h0s0,0,0,0c3.68-4.35,7.75-8.31,10.75-16.76l.25-.71Z" class="cls-4"/>
    <path d="m533.07,361.23l-15.38-2.11c-.28-.13-.51-.24-.69-.35-.17-.11-.3-.2-.36-.33h0c-.05-.1-.07-.22-.07-.33,0-.32.14-.7.35-1.11.21-.41.5-.86.79-1.3.6-.88,1.26-1.77,1.51-2.29.07-.15.11-.27.11-.32v-.03c-.08-.23-.18-.43-.29-.56-.11-.13-.23-.19-.38-.19-.12,0-.28.05-.47.17-.16.1-.42.36-.73.7-.31.34-.67.77-1.04,1.22-.75.89-1.54,1.86-2.14,2.39-.23.2-.43.3-.63.31-.21,0-.38-.14-.46-.32-.08-.18-.12-.4-.12-.65,0-.54.17-1.19.5-1.65.17-.24.49-.54.89-.9.4-.36.88-.77,1.37-1.18.98-.82,1.99-1.68,2.4-2.19.12-.14.18-.26.19-.3.01-.07.02-.15.02-.24,0-.26-.07-.53-.21-.73-.14-.2-.33-.33-.62-.33-.16,0-.35.04-.57.14-.44.19-1.23.85-2.02,1.63-.8.78-1.63,1.68-2.2,2.36-.38.45-.65.83-.7.96-.09.22-.2.56-.33.9-.13.34-.27.67-.44.9-.12.15-.26.28-.46.28-.08,0-.16-.02-.23-.07-.19-.12-.3-.34-.38-.61-.08-.28-.12-.62-.12-1,0-.87.22-1.94.75-2.78.38-.6,1.13-1.26,1.95-1.91.82-.65,1.69-1.29,2.31-1.82.41-.35.7-.66.76-.84.1-.27.16-.51.16-.71s-.05-.35-.13-.44c-.08-.09-.2-.15-.4-.15h-.14s-.2.08-.38.19c-.19.11-.42.26-.68.45-.52.37-1.15.86-1.79,1.38-1.27,1.03-2.54,2.14-2.89,2.51l-.07.08c-.06.21-.46,1.71-.83,2.63-.13.32-.24.55-.37.69-.04.04-.08.07-.15.08h-.05c-.14,0-.24-.08-.33-.18-.09-.11-.17-.24-.24-.41-.14-.34-.25-.79-.25-1.3,0-.32.04-.67.14-1.02.22-.75.97-1.87,1.71-2.9.74-1.03,1.49-1.95,1.69-2.22h0c.18-.23.35-.72.35-1.09,0-.17-.03-.32-.1-.4-.06-.09-.14-.13-.3-.14-.06,0-.13,0-.2.03-.52.13-1.4.6-2.23,1.41-.84.8-1.63,1.93-2.01,3.37-.09.33-.13.74-.13,1.2,0,1.73.61,4.24,1.56,6.66.95,2.41,2.25,4.72,3.62,6.09.13.06.96.41,2.22.94,1.37.58,3.23,1.36,5.19,2.19,3.8,1.59,7.99,3.33,9.79,4.01.02-.44.06-.86.13-1.27v-.03s0,0,0,0c.36-2.27,1.31-3.99,2.25-5.18.79-1.01,1.56-1.65,1.97-1.95Z" class="cls-4"/>
    <path d="m565.02,394.41h1.06c.27-1.74.93-3.37,1.87-4.77.36-.54.77-1.03,1.21-1.5-.31-.57-.48-1.21-.48-1.86v-1.06c0-1.26.39-2.47,1.05-3.45.24-.35.52-.66.82-.95,0-.82.24-1.63.74-2.32l.7-.97h0c.08-.1.12-.24.12-.37v-5.35c-.05-.07-.09-.15-.13-.22-.62-1-1.28-1.96-1.97-2.88-.25-.13-.49-.26-.72-.39-1.78-.94-3.8-2.01-5.89-3-.17-.08-.34-.16-.5-.23-.53-.25-1.08-.5-1.62-.73-.29-.09-.59-.16-.89-.2-1.36-.22-2.59-.32-3.72-.32-3.55,0-5.99,1.08-7.82,3.31-1.84,2.23-3.05,5.64-4.09,10.29-1.79,8.08-2.58,15.72-3.71,19.82-.17.61-.35,1.13-.53,1.58-.43.86-.94,1.33-1.4,1.59-.67.07-1.38.12-2.1.15-2.56.13-5.23.1-6.53.23-.37.04-.64.1-.71.15-.16.1-.49.38-.88.76-.4.39-.88.88-1.38,1.41-1.01,1.07-1.23,1.28-2.01,2.18-.52.6-.89,1.06-.98,1.19-.28.41-1.22,2.15-1.21,3.62,0,.52.11,1,.4,1.38.06.04.26.14.59.31.36-2.91,1.53-4.41,1.59-4.48,1.08-1.79,2.09-2.99,3.54-4.01.48-.34.91-.56,1.28-.56.09,0,.17.01.25.04.17.06.31.16.4.28.09.12.13.26.13.41,0,.38-.23.79-.55,1.2-.32.41-.73.82-1.13,1.14,0,0-.16.15-.4.41l-.06.05h0c-.73.86-1.55,1.99-1.94,3.02-.48,1.28-.64,2.6-.68,3.66.28.13.58.26.89.4.34-2.98,1.55-4.52,1.6-4.59,1.08-1.79,2.09-2.99,3.54-4.01.48-.34.91-.55,1.28-.56.09,0,.17.01.25.04.17.06.31.16.4.28.09.12.13.26.13.41,0,.38-.23.79-.55,1.2-.32.41-.73.82-1.13,1.15,0,0-.16.15-.4.41l-.06.05h0c-.73.87-1.54,1.99-1.93,3.02-.44,1.19-.61,2.41-.67,3.43.34.08.7.14,1.05.19.38-1.42,1.29-3.86,3.31-5.83,1.66-1.63,1.84-1.58,2.52-1.98.23-.13.41-.21.59-.21.13,0,.25.05.34.14.08.09.13.21.16.34.03.13.04.24.04.37,0,.44-.19.86-.58,1.38-.39.52-.09.11-.94.97-1.52,1.52-2.83,3.38-3.43,4.96,1.46-.02,2.74-.32,3.37-.91.7-.64,1.3-1.87,2.16-3.08.86-1.21,1.09-1.39,2.86-1.93,2.62-.81,2.27-.11,3.97-.58.57-.16.99-.37,1.22-.63.39-.44,1.94-2,3.86-4.84,1.92-2.83,4.2-6.92,6.02-12.38l.12-.36.14.35c.83,1.97,2.23,4.55,4.47,6.87.19-.56.5-1.07.92-1.49.73-.73,1.73-1.14,2.76-1.14Z" class="cls-4"/>
    <path d="m571.99,327.37c-3.09-3.69-6.28-7.44-7.46-8.73-.35.6-1.64,2.68-4.05,4.77-2.85,2.47-7.27,4.94-13.5,4.94-.89,0-1.81-.05-2.77-.16h0s0,0,0,0c0,0-.09-.02-.27-.06-.18-.03-.43-.08-.76-.13-.65-.09-1.55-.18-2.6-.18-1.77,0-3.92.27-5.85,1.22l2.11,6.05-.04.06h0s.28.79.28.79l3,8.61.63,1.8,1.3,3.78-6.27,3.53,1.34,2.51c1.02-.98,7.92-7.05,22.35-7.05,2.62,0,5.49.21,8.61.67-.61-1.16-3.2-6.3-4.29-11.46l-.19-.89.45.79c.82,1.44,3.58,5.98,8.11,10.83v-21.55c-.04-.05-.09-.1-.13-.15Z" class="cls-4"/>
    <path d="m558.57,351.74c-4.46,0-7.88.58-9.3.87-.47.09-.73.16-.73.16h0s0,0,0,0c-3.66.51-8.83,3.7-12.33,8.19h0s-.01.02-.01.02c-1.06.9-5.46,5.01-5.51,10.55,0,.02.02.1.04.22.03.15.07.34.14.55.12.4.33.81.58.95l.61-.09c-.12-.26-.29-.81-.29-1.82,0-.61.06-1.38.24-2.36.02-.15.05-.28.07-.41h0s0-.01,0-.01c0,0,.05-.17.17-.35.12-.18.34-.38.66-.44l.19-.04-.02.19c-.03.3-.04.59-.04.87,0,1.25.26,2.31.56,3.11.3.79.66,1.33.85,1.53h0c.27.3.51.37.69.37.11,0,.21-.03.28-.06-1.12-1.87-1.45-4.24-1.45-5.96,0-.87.08-1.56.2-1.96.04-.13.08-.23.14-.31.21-.25.46-.33.66-.33.22,0,.38.09.39.09l.08.05v.1c-.17,1.03-.24,1.95-.24,2.78,0,2.07.41,3.54.88,4.53.46.98,1,1.49,1.2,1.6.18.1.46.16.77.16.28,0,.58-.05.82-.15.24-.1.41-.24.48-.41.03-.07.04-.14.04-.19,0-.15-.09-.27-.21-.37-.12-.09-.26-.15-.32-.17h-.02c-1.21-.26-1.93-1.17-2.33-2.25-.41-1.08-.51-2.35-.51-3.4,0-1.1.12-1.97.14-2.11.02-.16.14-.26.26-.31.12-.05.25-.06.37-.06.24,0,.47.05.47.05l.11.03v.12s0,.12,0,.33c0,.92.06,3.56.62,5.09.19.51.43.89.71,1.04.69.39,1.46.51,2.23.51.88,0,1.76-.16,2.54-.27.39-.05.6-.19.72-.35.12-.16.16-.36.16-.54,0-.22-.06-.42-.08-.5v-.04s-.02-.02-.02-.02v-.03c0-.07-.02-.1-.02-.1h-.06c-.12-.01-.37.07-.69.15-.32.09-.72.17-1.18.17-.2,0-.41-.02-.64-.06-.45-.08-.78-.32-.97-.64-.2-.32-.27-.7-.27-1.09,0-.54.15-1.09.36-1.52.41-.8,1.73-2.33,2.43-2.86,2-1.5,4.35-2.5,6.39-3.87.87-.58,1.96-.82,3.2-.82,2.49,0,5.59.98,8.7,2.29,3.12,1.31,6.26,2.96,8.82,4.32.6.32,1.22.66,1.84,1.01v-13.82c-4.9-1.48-9.63-1.94-13.56-1.94Z" class="cls-4"/>
    <path d="m590.57,366.82c0-3.07-.97-6.55-1.48-8.68-.19-.79-.4-1.58-.62-2.37v16.49c.15-.11.29-.22.43-.35,1.24-1.18,1.67-3.03,1.67-5.09Z" class="cls-4"/>
    <path d="m546.86,283.37c-6.75,0-12.67,3.86-16.05,9.68.37-.07.76-.11,1.15-.13,1.22,0,3.42.27,5.23,2.01-.17-.16,1.79-1.76,1.88-1.83,3.01-2.23,7.3-1.78,10.1.55.78.65,1.6,1.45,2.17,2.29.69,1,1.41,2.27,1.73,3.46.02.07.03.14.04.2l9.14-7.58c-3.46-5.24-9.06-8.65-15.4-8.65Z" class="cls-4"/>
    <path d="m572.14,301.04c0-1.05-.18-2.05-.51-2.96-.29-.81-.7-1.55-1.19-2.19-.96-1.26-2.27-2.16-3.76-2.5-.43-.1-.88-.15-1.34-.15-.74,0-1.45.14-2.11.39v-.02s-.07.03-.1.04l-9.74,8.08c.02,1.98-.6,3.95-1.8,5.63-.61.88-1.83,2.11-3.52,2.97.97,1.75,1.74,3.96,1.51,6.35-.37,3.72-2.56,6.87-5.52,8.36.92.15,1.86.23,2.82.23,8.57,0,15.81-6.23,18.19-14.81-2.34-1.01-3.44-2.63-3.44-2.63,1.4.82,2.69,1.09,3.81,1.06v-.04c1.36-.02,2.61-.5,3.66-1.3,1.83-1.4,3.04-3.78,3.04-6.49Zm-7.3,5.14c.03-.12.05-.25.07-.38.56-3.63-1.29-8.55-1.29-8.55,0,0,2.3-.24,3.62,1.28.25.29.47.65.63,1.09.12.34.22.71.26,1.15.36,3.8-3.28,5.42-3.28,5.42Z" class="cls-4"/>
    <path d="m615.02,361.59c-.75-3.62-1.76-7.07-2.78-10.11-1.18-3.52-2.55-6.99-3.95-10.42l-.02.23c-1.38-3.45-3.74-9.41-4.28-10.78-1.35-3.45-2.57-6.89-3.53-10.35-.96-3.45-1.65-6.93-1.94-10.44-.04-.51-.06-1-.04-1.46.04-1.19.25-2.18.59-2.99.25-.61.57-1.11.94-1.54.56-.65,1.26-1.14,2.17-1.49.9-.35,2.02-.54,3.37-.49.34.01.7.04,1.09.09.36.15,1.07.48,1.79,1.02.49.37.98.82,1.37,1.35.4.53.71,1.12.89,1.84.29,1.18,1.33,1.97,2.48,2,.24,0,.48-.02.73-.08,1.17-.29,1.96-1.33,2-2.48,0-.24-.01-.49-.08-.74-.39-1.54-1.09-2.84-1.9-3.88-1.22-1.56-2.64-2.56-3.77-3.2-1.12-.64-1.96-.91-2.08-.95-.15-.05-.3-.08-.46-.1-.64-.09-1.27-.14-1.89-.16-1.73-.05-3.36.15-4.88.65-1.13.37-2.18.9-3.12,1.59-1.4,1.03-2.53,2.41-3.29,4.02-.76,1.61-1.16,3.43-1.22,5.38-.02.67,0,1.36.05,2.06.33,3.92,1.09,7.72,2.12,11.42,1.54,5.56,3.67,10.9,5.82,16.13,1.06,2.58,4.19,10.35,5.93,14.71l-.03.33c.04.13.1.27.14.4.97,2.91,1.93,6.17,2.61,9.5.68,3.32,1.09,6.72.99,9.87v.04c-.15,4.91-1.78,9.54-5.98,12.37-3.92,2.64-8.59,3.83-13.28,2.9,1.53,1.77,2.58,4.07,3.24,6.44.1.38,7.27-1.72,7.92-1.96,2.5-.93,4.88-2.24,6.91-3.97,4.5-3.86,6.3-9.87,6.48-15.62.12-3.73-.35-7.5-1.09-11.12Z" class="cls-4"/>
  </g>
</svg>